<svg width="66" height="61" viewBox="0 0 66 61" fill="none" xmlns="http://www.w3.org/2000/svg">
<path d="M27.6774 12.7903C27.6774 5.73797 21.4691 0 13.8387 0C6.20829 0 0 5.73797 0 12.7903C0 19.8427 6.20829 25.5806 13.8387 25.5806C21.4691 25.5806 27.6774 19.8427 27.6774 12.7903ZM2.12903 12.7903C2.12903 6.8232 7.38248 1.96774 13.8387 1.96774C20.2949 1.96774 25.5484 6.8232 25.5484 12.7903C25.5484 18.7574 20.2949 23.6129 13.8387 23.6129C7.38248 23.6129 2.12903 18.7574 2.12903 12.7903Z" fill="#5A84C5"/>
<path d="M13.8387 9.8387C14.425 9.8387 14.9032 10.2807 14.9032 10.8226H17.0323C17.0323 9.54181 16.1393 8.45945 14.9032 8.05207V6.88708H12.7742V8.05207C11.5381 8.45945 10.6452 9.54181 10.6452 10.8226C10.6452 12.4497 12.0782 13.7742 13.8387 13.7742C14.425 13.7742 14.9032 14.2162 14.9032 14.7581C14.9032 15.3 14.425 15.7419 13.8387 15.7419C13.2524 15.7419 12.7742 15.3 12.7742 14.7581H10.6452C10.6452 16.0388 11.5381 17.1212 12.7742 17.5286V18.6935H14.9032V17.5286C16.1393 17.1212 17.0323 16.0388 17.0323 14.7581C17.0323 13.1309 15.5992 11.8064 13.8387 11.8064C13.2524 11.8064 12.7742 11.3645 12.7742 10.8226C12.7742 10.2807 13.2524 9.8387 13.8387 9.8387Z" fill="#5A84C5"/>
<path d="M13.8387 5.90329C17.9476 5.90329 21.2903 8.99278 21.2903 12.7904C21.2903 14.3272 20.7477 15.7862 19.7201 17.0083L21.401 18.2156C22.7213 16.6442 23.4194 14.7692 23.4194 12.7904C23.4194 7.9085 19.1207 3.93555 13.8387 3.93555C11.6977 3.93555 9.66901 4.58073 7.9688 5.80096L9.27501 7.35459C10.5973 6.40483 12.1759 5.90329 13.8387 5.90329Z" fill="#5A84C5"/>
<path d="M19.7086 19.7798L18.4024 18.2261C17.0801 19.1759 15.5015 19.6774 13.8387 19.6774C9.72982 19.6774 6.3871 16.5879 6.3871 12.7903C6.3871 11.2535 6.92975 9.79452 7.95736 8.57237L6.27638 7.36511C4.95613 8.93652 4.25806 10.8115 4.25806 12.7903C4.25806 17.6722 8.55667 21.6452 13.8387 21.6452C15.9797 21.6452 18.0084 21 19.7086 19.7798Z" fill="#5A84C5"/>
<path d="M59.6129 17.7097H57.4839V9.83871H55.3548V5.90323H50.0323V0H47.9032V5.90323H42.5806V9.83871H40.4516V17.7097H38.3226V31.4839H36.1935V25.5806H34.0645V21.6452H30.871V16.7258H28.7419V21.6452H25.5484V25.5806H23.4194V31.4839H19.1613V59.0323H17.0323V61H61.7419V59.0323H59.6129V17.7097ZM44.7097 7.87097H53.2258V9.83871H44.7097V7.87097ZM42.5806 11.8065H55.3548V17.7097H53.2258V13.7742H51.0968V17.7097H46.8387V13.7742H44.7097V17.7097H42.5806V11.8065ZM57.4839 19.6774V59.0323H54.2903V49.1936H43.6452V59.0323H40.4516V19.6774H57.4839ZM52.1613 59.0323H45.7742V51.1613H52.1613V59.0323ZM27.6774 23.6129H31.9355V25.5806H27.6774V23.6129ZM25.5484 27.5484H34.0645V31.4839H30.871V29.5161H28.7419V31.4839H25.5484V27.5484ZM21.2903 33.4516H38.3226V59.0323H36.1935V35.4194H34.0645V59.0323H30.871V35.4194H28.7419V59.0323H25.5484V35.4194H23.4194V59.0323H21.2903V33.4516Z" fill="#5A84C5"/>
<path d="M42.5806 21.6451H44.7097V23.6129H42.5806V21.6451Z" fill="#5A84C5"/>
<path d="M47.9032 21.6451H50.0323V23.6129H47.9032V21.6451Z" fill="#5A84C5"/>
<path d="M53.2258 21.6451H55.3548V23.6129H53.2258V21.6451Z" fill="#5A84C5"/>
<path d="M42.5806 27.5483H44.7097V29.5161H42.5806V27.5483Z" fill="#5A84C5"/>
<path d="M47.9032 27.5483H50.0323V29.5161H47.9032V27.5483Z" fill="#5A84C5"/>
<path d="M53.2258 27.5483H55.3548V29.5161H53.2258V27.5483Z" fill="#5A84C5"/>
<path d="M42.5806 33.4517H44.7097V35.4194H42.5806V33.4517Z" fill="#5A84C5"/>
<path d="M47.9032 33.4517H50.0323V35.4194H47.9032V33.4517Z" fill="#5A84C5"/>
<path d="M53.2258 33.4517H55.3548V35.4194H53.2258V33.4517Z" fill="#5A84C5"/>
<path d="M42.5806 39.3549H44.7097V41.3226H42.5806V39.3549Z" fill="#5A84C5"/>
<path d="M47.9032 39.3549H50.0323V41.3226H47.9032V39.3549Z" fill="#5A84C5"/>
<path d="M53.2258 39.3549H55.3548V41.3226H53.2258V39.3549Z" fill="#5A84C5"/>
<path d="M42.5806 45.2581H44.7097V47.2258H42.5806V45.2581Z" fill="#5A84C5"/>
<path d="M47.9032 45.2581H50.0323V47.2258H47.9032V45.2581Z" fill="#5A84C5"/>
<path d="M53.2258 45.2581H55.3548V47.2258H53.2258V45.2581Z" fill="#5A84C5"/>
<path d="M0 29.5161H2.12903V31.4838H0V29.5161Z" fill="#5A84C5"/>
<path d="M0 33.4517H2.12903V45.2581H0V33.4517Z" fill="#5A84C5"/>
<path d="M6.3871 36.4033H8.51613V38.3711H6.3871V36.4033Z" fill="#5A84C5"/>
<path d="M6.3871 40.3387H8.51613V52.1452H6.3871V40.3387Z" fill="#5A84C5"/>
<path d="M12.7742 29.5161H14.9032V31.4838H12.7742V29.5161Z" fill="#5A84C5"/>
<path d="M12.7742 33.4517H14.9032V45.2581H12.7742V33.4517Z" fill="#5A84C5"/>
<path d="M63.871 59.0322H66V61H63.871V59.0322Z" fill="#5A84C5"/>
<path d="M12.7742 59.0322H14.9032V61H12.7742V59.0322Z" fill="#5A84C5"/>
</svg>
