<svg width="42" height="42" viewBox="0 0 42 42" fill="none" xmlns="http://www.w3.org/2000/svg">
<g opacity="0.1">
<g clip-path="url(#clip0)">
<path d="M17.6109 33.0445C15.5741 33.0445 13.9171 34.7016 13.9171 36.7383C13.9171 38.7751 15.5741 40.4321 17.6109 40.4321C19.6477 40.4321 21.3047 38.7751 21.3047 36.7383C21.3046 34.7016 19.6476 33.0445 17.6109 33.0445ZM17.6109 38.3695C16.7113 38.3695 15.9795 37.6377 15.9795 36.7382C15.9795 35.8386 16.7114 35.1068 17.6109 35.1068C18.5104 35.1068 19.2423 35.8387 19.2423 36.7382C19.2423 37.6378 18.5104 38.3695 17.6109 38.3695Z" fill="white"/>
<path d="M30.5673 33.0445C28.5306 33.0445 26.8735 34.7016 26.8735 36.7383C26.8735 38.7751 28.5306 40.4321 30.5673 40.4321C32.6041 40.4321 34.2611 38.7751 34.2611 36.7383C34.261 34.7016 32.604 33.0445 30.5673 33.0445ZM30.5673 38.3695C29.6678 38.3695 28.936 37.6377 28.936 36.7382C28.936 35.8386 29.6679 35.1068 30.5673 35.1068C31.4669 35.1068 32.1987 35.8387 32.1987 36.7382C32.1987 37.6378 31.4668 38.3695 30.5673 38.3695Z" fill="white"/>
<path d="M31.4768 13.5971H16.6989C16.1294 13.5971 15.6677 14.0588 15.6677 14.6283C15.6677 15.1979 16.1295 15.6595 16.6989 15.6595H31.4768C32.0464 15.6595 32.508 15.1979 32.508 14.6283C32.508 14.0587 32.0464 13.5971 31.4768 13.5971Z" fill="white"/>
<path d="M30.6724 18.9521H17.5033C16.9337 18.9521 16.472 19.4138 16.472 19.9833C16.472 20.5529 16.9337 21.0146 17.5033 21.0146H30.6723C31.2419 21.0146 31.7036 20.5529 31.7036 19.9833C31.7036 19.4139 31.2419 18.9521 30.6724 18.9521Z" fill="white"/>
<path d="M41.5359 9.00245C41.1426 8.51978 40.5599 8.243 39.9372 8.243H7.81582L7.16712 5.0939C7.03168 4.43699 6.58363 3.88541 5.96831 3.61823L1.44207 1.65358C0.919526 1.4266 0.312248 1.66638 0.0855956 2.18876C-0.141303 2.7113 0.0984745 3.31866 0.620768 3.54531L5.14709 5.51004L10.1367 29.7307C10.3333 30.6846 11.1828 31.3769 12.1568 31.3769H36.8618C37.4314 31.3769 37.893 30.9153 37.893 30.3457C37.893 29.7762 37.4314 29.3145 36.8618 29.3145H12.1568L11.5499 26.3683H37.0528C38.0267 26.3683 38.8763 25.6759 39.0727 24.722L41.9572 10.7213C42.0828 10.1117 41.9292 9.48504 41.5359 9.00245ZM37.0528 24.306H11.125L8.24074 10.3054L39.9371 10.3054L37.0528 24.306Z" fill="white"/>
</g>
</g>
<defs>
<clipPath id="clip0">
<rect width="42" height="42" fill="white"/>
</clipPath>
</defs>
</svg>
