<svg xmlns="http://www.w3.org/2000/svg" fill="none" viewBox="0 0 30 30">
  <defs/>
  <path fill="#5A84C5" d="M28.5 3.5h-27C.7 3.5 0 4.2 0 5v20c0 .8.7 1.5 1.5 1.5h27c.8 0 1.5-.7 1.5-1.5V5c0-.8-.7-1.5-1.5-1.5zM29 25c0 .3-.2.5-.5.5h-27A.5.5 0 011 25V5c0-.3.2-.5.5-.5h27c.3 0 .5.2.5.5v20z"/>
  <path fill="#5A84C5" d="M27.5 5.5l-.3.1-11.6 9.7a1 1 0 01-1.2 0L2.8 5.6a.5.5 0 00-.6.8L13.7 16a2 2 0 002.6 0l11.5-9.7a.5.5 0 00-.3-.9zM9.6 16c-.2 0-.3 0-.5.2l-7 7.5a.5.5 0 10.8.6l7-7.5a.5.5 0 00-.3-.8zM20.9 16.2a.5.5 0 10-.8.6l7 7.5a.5.5 0 00.8-.6l-7-7.5z"/>
</svg>