<svg width="77" height="71" viewBox="0 0 77 71" fill="none" xmlns="http://www.w3.org/2000/svg">
<g clip-path="url(#clip0)">
<path d="M10.7218 71H66.287C68.2186 71 69.7901 69.551 69.7901 67.7699C69.7901 66.9043 69.7901 5.21428 69.7901 3.23008C69.7901 1.44901 68.2186 0 66.287 0C65.5944 0 11.7804 0 10.7218 0C8.79021 0 7.21875 1.44901 7.21875 3.23008V67.7699C7.21875 69.551 8.79021 71 10.7218 71ZM67.5342 8.72441V29.5934H9.47461V8.72441H67.5342ZM66.287 68.9199H10.7218C10.0345 68.9199 9.47461 68.4037 9.47461 67.7699V31.6735H67.5342V67.7699C67.5342 68.4037 66.9749 68.9199 66.287 68.9199ZM67.5277 3.11308C67.5319 3.15154 67.5342 3.19054 67.5342 3.23008V6.64433H16.7392V2.08008H66.287C66.9315 2.08008 67.4637 2.53347 67.5277 3.11308ZM9.47461 3.23008C9.47461 2.59631 10.0345 2.08008 10.7218 2.08008H14.4833V6.64433H9.47461V3.23008Z" fill="#5A84C5"/>
<path d="M26.0099 37.7144H15.1483C13.8389 37.7144 12.7738 38.697 12.7738 39.9039V52.5262C12.7738 53.7337 13.8389 54.7157 15.1483 54.7157H26.0099C27.3194 54.7157 28.3845 53.7337 28.3845 52.5262V39.9039C28.3845 38.697 27.3194 37.7144 26.0099 37.7144ZM26.1286 52.5262C26.1286 52.5869 26.0751 52.6357 26.0099 52.6357H15.1483C15.0831 52.6357 15.0297 52.5869 15.0297 52.5262V39.9039C15.0297 39.8437 15.0831 39.795 15.1483 39.795H26.0099C26.0751 39.795 26.1286 39.8437 26.1286 39.9039V52.5262Z" fill="#5A84C5"/>
<path d="M43.9352 37.7144H33.0736C31.7641 37.7144 30.6991 38.697 30.6991 39.9039V52.5262C30.6991 53.7337 31.7641 54.7157 33.0736 54.7157H43.9352C45.2447 54.7157 46.3097 53.7337 46.3097 52.5262V39.9039C46.3097 38.697 45.2447 37.7144 43.9352 37.7144ZM44.0539 52.5262C44.0539 52.5869 44.0004 52.6357 43.9352 52.6357H33.0736C33.0084 52.6357 32.9549 52.5869 32.9549 52.5262V39.9039C32.9549 39.8437 33.0084 39.795 33.0736 39.795H43.9352C44.0004 39.795 44.0539 39.8437 44.0539 39.9039V52.5262Z" fill="#5A84C5"/>
<path d="M17.3619 35.7773H23.7964C24.4191 35.7773 24.9243 35.312 24.9243 34.7373C24.9243 34.1631 24.4191 33.6973 23.7964 33.6973H17.3619C16.7392 33.6973 16.234 34.1631 16.234 34.7373C16.234 35.312 16.7392 35.7773 17.3619 35.7773Z" fill="#5A84C5"/>
<path d="M35.2872 35.7773H41.7216C42.3444 35.7773 42.8496 35.312 42.8496 34.7373C42.8496 34.1631 42.3444 33.6973 41.7216 33.6973H35.2872C34.6645 33.6973 34.1592 34.1631 34.1592 34.7373C34.1592 35.312 34.6645 35.7773 35.2872 35.7773Z" fill="#5A84C5"/>
<path d="M53.213 35.7773H59.6469C60.2702 35.7773 60.7748 35.312 60.7748 34.7373C60.7748 34.1631 60.2702 33.6973 59.6469 33.6973H53.213C52.5897 33.6973 52.0845 34.1631 52.0845 34.7373C52.0845 35.312 52.5897 35.7773 53.213 35.7773Z" fill="#5A84C5"/>
<path d="M27.2565 56.4773H13.9017C13.279 56.4773 12.7738 56.9431 12.7738 57.5173C12.7738 58.0915 13.279 58.5574 13.9017 58.5574H27.2565C27.8792 58.5574 28.3845 58.0915 28.3845 57.5173C28.3845 56.9431 27.8792 56.4773 27.2565 56.4773Z" fill="#5A84C5"/>
<path d="M27.2565 60.0541H13.9017C13.279 60.0541 12.7738 60.5194 12.7738 61.0941C12.7738 61.6683 13.279 62.1342 13.9017 62.1342H27.2565C27.8792 62.1342 28.3845 61.6683 28.3845 61.0941C28.3845 60.5194 27.8792 60.0541 27.2565 60.0541Z" fill="#5A84C5"/>
<path d="M27.2565 63.6309H13.9017C13.279 63.6309 12.7738 64.0962 12.7738 64.6709C12.7738 65.2451 13.279 65.7109 13.9017 65.7109H27.2565C27.8792 65.7109 28.3845 65.2451 28.3845 64.6709C28.3845 64.0962 27.8792 63.6309 27.2565 63.6309Z" fill="#5A84C5"/>
<path d="M45.1818 56.4773H31.8276C31.2043 56.4773 30.6991 56.9431 30.6991 57.5173C30.6991 58.0915 31.2043 58.5574 31.8276 58.5574H45.1818C45.8045 58.5574 46.3097 58.0915 46.3097 57.5173C46.3097 56.9431 45.8045 56.4773 45.1818 56.4773Z" fill="#5A84C5"/>
<path d="M45.1818 60.0541H31.8276C31.2043 60.0541 30.6991 60.5194 30.6991 61.0941C30.6991 61.6683 31.2043 62.1342 31.8276 62.1342H45.1818C45.8045 62.1342 46.3097 61.6683 46.3097 61.0941C46.3097 60.5194 45.8045 60.0541 45.1818 60.0541Z" fill="#5A84C5"/>
<path d="M45.1818 63.6309H31.8276C31.2043 63.6309 30.6991 64.0962 30.6991 64.6709C30.6991 65.2451 31.2043 65.7109 31.8276 65.7109H45.1818C45.8045 65.7109 46.3097 65.2451 46.3097 64.6709C46.3097 64.0962 45.8045 63.6309 45.1818 63.6309Z" fill="#5A84C5"/>
<path d="M63.1071 56.4773H49.7529C49.1296 56.4773 48.6249 56.9431 48.6249 57.5173C48.6249 58.0915 49.1296 58.5574 49.7529 58.5574H63.1071C63.7304 58.5574 64.235 58.0915 64.235 57.5173C64.235 56.9431 63.7304 56.4773 63.1071 56.4773Z" fill="#5A84C5"/>
<path d="M63.1071 60.0541H49.7529C49.1296 60.0541 48.6249 60.5194 48.6249 61.0941C48.6249 61.6683 49.1296 62.1342 49.7529 62.1342H63.1071C63.7304 62.1342 64.235 61.6683 64.235 61.0941C64.235 60.5194 63.7304 60.0541 63.1071 60.0541Z" fill="#5A84C5"/>
<path d="M63.1071 63.6309H49.7529C49.1296 63.6309 48.6249 64.0962 48.6249 64.6709C48.6249 65.2451 49.1296 65.7109 49.7529 65.7109H63.1071C63.7304 65.7109 64.235 65.2451 64.235 64.6709C64.235 64.0962 63.7304 63.6309 63.1071 63.6309Z" fill="#5A84C5"/>
<path d="M14.2454 27.3926H62.7634C63.9983 27.3926 65.0022 26.4668 65.0022 25.3282V13.2372C65.0022 12.0991 63.9983 11.1729 62.7634 11.1729H41.1365C40.5132 11.1729 40.0086 11.6387 40.0086 12.2129C40.0086 12.7871 40.5132 13.2529 41.1365 13.2529H62.7464V25.3125H14.2624V13.2529H35.8723C36.4956 13.2529 37.0002 12.7871 37.0002 12.2129C37.0002 11.6387 36.4956 11.1729 35.8723 11.1729H14.2454C13.0111 11.1729 12.0066 12.0991 12.0066 13.2372V25.3282C12.0066 26.4668 13.0111 27.3926 14.2454 27.3926Z" fill="#5A84C5"/>
<path d="M61.8605 37.7144H50.9995C49.69 37.7144 48.6249 38.697 48.6249 39.9039V52.5262C48.6249 53.7337 49.69 54.7157 50.9995 54.7157H61.8605C63.1699 54.7157 64.235 53.7337 64.235 52.5262V48.6423C64.235 48.0676 63.7304 47.6023 63.1071 47.6023C62.4838 47.6023 61.9791 48.0676 61.9791 48.6423V52.5262C61.9791 52.5869 61.9257 52.6357 61.8605 52.6357H50.9995C50.9337 52.6357 50.8808 52.5869 50.8808 52.5262V39.9039C50.8808 39.8437 50.9337 39.795 50.9995 39.795H61.8605C61.9263 39.795 61.9791 39.8437 61.9791 39.9039V43.7883C61.9791 44.363 62.4838 44.8283 63.1071 44.8283C63.7304 44.8283 64.235 44.363 64.235 43.7883V39.9039C64.235 38.697 63.1699 37.7144 61.8605 37.7144Z" fill="#5A84C5"/>
</g>
<defs>
<clipPath id="clip0">
<rect width="77" height="71" fill="white"/>
</clipPath>
</defs>
</svg>
