<svg width="43" height="43" viewBox="0 0 43 43" fill="none" xmlns="http://www.w3.org/2000/svg">
<g opacity="0.1">
<g clip-path="url(#clip0)">
<path d="M36.536 14.3691C36.5356 14.3691 36.535 14.3691 36.5346 14.3691H0.615651C0.276037 14.3688 0.000359541 14.6437 3.51516e-07 14.9834C3.51516e-07 14.9838 3.51516e-07 14.9843 3.51516e-07 14.9848V32.2259C-0.000358838 32.5655 0.274601 32.8412 0.614214 32.8415C0.614663 32.8415 0.615202 32.8415 0.615651 32.8415H25.0405C25.3805 32.8415 25.6562 32.5659 25.6562 32.2259C25.6562 31.8859 25.3805 31.6102 25.0405 31.6102H1.2313V15.6004H35.9189V17.1399C35.9186 17.4795 36.1935 17.7552 36.5332 17.7556C36.5336 17.7556 36.5341 17.7556 36.5346 17.7556C36.8742 17.7559 37.1499 17.481 37.1502 17.1414C37.1502 17.1409 37.1502 17.1404 37.1502 17.1399V14.9848C37.1506 14.6452 36.8756 14.3696 36.536 14.3691Z" fill="white"/>
<path d="M32.3596 11.5107L3.62442 5.04529C3.46494 5.00964 3.29783 5.03856 3.15963 5.12575C3.02161 5.21366 2.924 5.35258 2.88809 5.51224L1.45133 11.9776C1.37751 12.3097 1.58692 12.6387 1.91899 12.7125C2.25106 12.7864 2.58008 12.5769 2.65389 12.2449L3.95631 6.3822L32.0895 12.7118C32.134 12.7222 32.1795 12.7273 32.2252 12.7269C32.5652 12.7263 32.8403 12.4502 32.8398 12.1102C32.8393 11.8227 32.6399 11.574 32.3596 11.5107Z" fill="white"/>
<path d="M28.8707 7.94826L11.6296 0.764474C11.3299 0.639566 10.9846 0.767886 10.8393 1.05829L9.40259 3.93181C9.24033 4.23191 9.35204 4.60681 9.65223 4.76908C9.95233 4.93134 10.3272 4.81963 10.4895 4.51944C10.4959 4.50768 10.5019 4.49564 10.5075 4.48343V4.48487L11.6863 2.12571L28.3951 9.08752C28.7097 9.2188 29.0713 9.07028 29.2026 8.75563C29.3338 8.44116 29.1853 8.07964 28.8707 7.94826Z" fill="white"/>
<path d="M29.3057 17.2427H23.6039C23.264 17.2427 22.9883 17.5184 22.9883 17.8583C22.9883 18.1983 23.264 18.474 23.6039 18.474H29.3057C29.6457 18.474 29.9213 18.1983 29.9213 17.8583C29.9213 17.5184 29.6457 17.2427 29.3057 17.2427Z" fill="white"/>
<path d="M17.8569 17.2836C14.3655 17.2836 11.5352 20.1139 11.5352 23.6053C11.5387 27.0952 14.367 29.9234 17.8569 29.927C21.3483 29.927 24.1786 27.0967 24.1786 23.6053C24.1786 20.1139 21.3483 17.2836 17.8569 17.2836ZM17.8569 28.7776C15.0003 28.7776 12.6846 26.4619 12.6846 23.6053C12.6877 20.75 15.0016 18.4361 17.8569 18.433C20.7135 18.433 23.0292 20.7487 23.0292 23.6053C23.0292 26.4619 20.7135 28.7776 17.8569 28.7776Z" fill="white"/>
<path d="M35.0975 19.295C31.2901 19.295 27.1953 20.1945 27.1953 22.1686V39.4096C27.1953 41.3837 31.2901 42.2832 35.0975 42.2832C38.9049 42.2832 42.9996 41.3837 42.9996 39.4096V22.1686C42.9996 20.1945 38.9049 19.295 35.0975 19.295ZM41.5629 39.3989C41.4544 39.7976 39.3 40.8464 35.0975 40.8464C30.895 40.8464 28.7405 39.7976 28.6321 39.4096V38.2803C30.1608 39.0504 32.6859 39.4096 35.0975 39.4096C37.5091 39.4096 40.0349 39.0469 41.5629 38.2796V39.3989ZM41.5629 36.5253C41.4544 36.924 39.3 37.9729 35.0975 37.9729C30.895 37.9729 28.7405 36.924 28.6321 36.5361V35.4068C30.1608 36.1769 32.6859 36.5361 35.0975 36.5361C37.5091 36.5361 40.0349 36.1733 41.5629 35.4061V36.5253ZM41.5629 33.6518C41.4544 34.0505 39.3 35.0994 35.0975 35.0994C30.895 35.0994 28.7405 34.0505 28.6321 33.6626V32.5333C30.1608 33.3034 32.6859 33.6626 35.0975 33.6626C37.5091 33.6626 40.0349 33.2998 41.5629 32.5326V33.6518ZM41.5629 30.7783C41.4544 31.177 39.3 32.2259 35.0975 32.2259C30.895 32.2259 28.7405 31.177 28.6321 30.7891V29.6598C30.1608 30.4299 32.6859 30.7891 35.0975 30.7891C37.5091 30.7891 40.0349 30.4263 41.5629 29.6591V30.7783ZM41.5629 27.9048C41.4544 28.3035 39.3 29.3523 35.0975 29.3523C30.895 29.3523 28.7405 28.3035 28.6321 27.9156V26.7863C30.1608 27.5528 32.6859 27.9156 35.0975 27.9156C37.5091 27.9156 40.0349 27.5528 41.5629 26.7856V27.9048ZM41.5629 25.0313C41.4544 25.43 39.3 26.4788 35.0975 26.4788C30.895 26.4788 28.7405 25.43 28.6321 25.0421V23.9128C30.1608 24.6793 32.6859 25.0421 35.0975 25.0421C37.5091 25.0421 40.0349 24.6793 41.5629 23.9121V25.0313ZM35.0975 23.6053C30.9014 23.6053 28.7477 22.5594 28.6321 22.1815V22.1772C28.7477 21.777 30.9014 20.7318 35.0975 20.7318C39.2641 20.7318 41.4192 21.762 41.5629 22.1686C41.4192 22.5752 39.2641 23.6053 35.0975 23.6053Z" fill="white"/>
<path d="M12.11 28.736H6.67974L4.10507 25.92V21.2505L6.94841 18.474H12.11C12.4499 18.474 12.7256 18.1983 12.7256 17.8583C12.7256 17.5184 12.4499 17.2427 12.11 17.2427H6.69842C6.5375 17.2423 6.38278 17.305 6.26739 17.4172L3.05839 20.5472C2.93851 20.6873 2.87278 20.8657 2.87305 21.0501V26.1592C2.87305 26.3128 2.93043 26.4609 3.03396 26.5744L5.95274 29.7669C6.06938 29.8946 6.23443 29.9674 6.40747 29.9673H12.11C12.4499 29.9673 12.7256 29.6916 12.7256 29.3517C12.7256 29.0117 12.45 28.736 12.11 28.736Z" fill="white"/>
<path d="M18.2155 22.8869H17.4971C17.2737 22.8869 17.1379 22.7619 17.1379 22.7073C17.1379 22.6527 17.2737 22.5277 17.4971 22.5277H19.2931C19.6898 22.5277 20.0114 22.206 20.0114 21.8093C20.0114 21.4126 19.6898 21.0909 19.2931 21.0909H18.5747C18.5747 20.6942 18.253 20.3726 17.8563 20.3726C17.4596 20.3726 17.1379 20.6942 17.1379 21.0909V21.1233C16.3412 21.2358 15.7375 21.8998 15.7012 22.7037C15.7526 23.6456 16.5549 24.3693 17.4971 24.3236H18.2155C18.4389 24.3236 18.5747 24.4486 18.5747 24.5032C18.5747 24.5578 18.4389 24.6828 18.2155 24.6828H16.4196C16.0228 24.6828 15.7012 25.0045 15.7012 25.4012C15.7012 25.7979 16.0228 26.1196 16.4196 26.1196H17.1379C17.1379 26.5163 17.4596 26.838 17.8563 26.838C18.253 26.838 18.5747 26.5163 18.5747 26.1196V26.0873C19.3715 25.9747 19.9751 25.3107 20.0114 24.5068C19.96 23.5649 19.1577 22.8413 18.2155 22.8869Z" fill="white"/>
</g>
</g>
<defs>
<clipPath id="clip0">
<rect width="43" height="43" fill="white"/>
</clipPath>
</defs>
</svg>
