<svg xmlns="http://www.w3.org/2000/svg" fill="none" viewBox="0 0 29 29">
  <defs/>
  <g fill="#5A84C5" clip-path="url(#clip0)">
    <path d="M28.2 22.4l-5.8-4c-.8-.4-1.8-.3-2.3.4L18.4 21c-.3.3-.7.4-1 .2l-.3-.2c-1-.5-2.4-1.3-5.1-4-2.7-2.7-3.5-4-4-5.1l-.2-.3a.7.7 0 01.2-1L10.2 9c.7-.5.8-1.5.3-2.3L6.6.8C6.1 0 5.1-.2 4.3.2L2 1.7C1 2.2.5 3 .3 3.7c-.9 3.3-.2 8.8 8 17C14.8 27.2 19.6 29 23 29c.7 0 1.5-.1 2.2-.3.9-.2 1.6-.8 2-1.6l1.6-2.4c.4-.8.2-1.8-.6-2.3zm-.3 1.8l-1.4 2.4c-.4.6-.9 1-1.5 1.2-3 .8-8.2.1-16-7.7C1 12 .3 7 1.1 4c.2-.7.6-1.2 1.2-1.6l2.4-1.4c.4-.2.8-.1 1 .2L8 4.5l1.7 2.7c.2.3.2.7-.1 1L7.4 9.9c-.7.5-.9 1.4-.5 2.1l.2.4c.6 1.1 1.4 2.5 4.2 5.3 2.8 2.8 4.2 3.6 5.3 4.2l.4.2c.7.4 1.6.2 2.1-.5l1.7-2.2c.3-.3.7-.3 1-.1l5.9 3.9c.3.2.4.6.2 1zM16.4 4.8c4.6 0 8.2 3.7 8.2 8.3a.5.5 0 001 0c0-5.1-4.1-9.2-9.2-9.2a.5.5 0 100 1z"/>
    <path d="M16.4 7.7c3 0 5.3 2.4 5.3 5.4a.5.5 0 101 0c0-3.5-2.8-6.3-6.3-6.3a.5.5 0 100 1z"/>
    <path d="M16.4 10.6c1.4 0 2.4 1.1 2.4 2.5a.5.5 0 001 0c0-2-1.5-3.4-3.4-3.4a.5.5 0 100 1z"/>
  </g>
  <defs>
    <clipPath id="clip0">
      <path fill="#fff" d="M0 0h29v29H0z"/>
    </clipPath>
  </defs>
</svg>