<svg width="8" height="14" viewBox="0 0 8 14" fill="none" xmlns="http://www.w3.org/2000/svg">
<path d="M0.794535 0.131823L0.132476 0.793928C0.0440655 0.882153 -5.34701e-07 0.983784 -5.29678e-07 1.09868C-5.24668e-07 1.2133 0.0440656 1.31488 0.132476 1.40311L5.33706 6.60797L0.132616 11.8126C0.0442053 11.9009 0.000139027 12.0024 0.000139032 12.1172C0.000139037 12.232 0.0442053 12.3336 0.132616 12.4218L0.794721 13.0838C0.882946 13.1722 0.98453 13.2163 1.09933 13.2163C1.21404 13.2163 1.31563 13.1721 1.40385 13.0838L7.57524 6.91258C7.66352 6.82435 7.70763 6.72272 7.70763 6.60797C7.70763 6.49321 7.66352 6.39176 7.57524 6.30359L1.40385 0.131823C1.31558 0.0435981 1.214 -0.000235366 1.09933 -0.000235361C0.984529 -0.000235356 0.882945 0.0435981 0.794535 0.131823Z" fill="#E44D5F"/>
</svg>
