<svg width="13" height="13" viewBox="0 0 13 13" fill="none" xmlns="http://www.w3.org/2000/svg">
<path d="M12.8701 3.49099L12.2188 2.83978C12.1321 2.75282 12.0321 2.70947 11.9191 2.70947C11.8063 2.70947 11.7064 2.75282 11.6196 2.83978L6.50007 7.95909L1.38072 2.83992C1.29389 2.75295 1.19397 2.70961 1.08109 2.70961C0.968171 2.70961 0.868251 2.75295 0.781472 2.83992L0.130306 3.49117C0.0433441 3.57795 0 3.67787 0 3.79079C0 3.90363 0.043481 4.00355 0.130306 4.09033L6.20045 10.1606C6.28723 10.2474 6.38719 10.2908 6.50007 10.2908C6.61295 10.2908 6.71273 10.2474 6.79946 10.1606L12.8701 4.09033C12.9569 4.0035 13 3.90358 13 3.79079C13 3.67787 12.9569 3.57795 12.8701 3.49099Z" fill="#5A84C5"/>
</svg>
