<svg width="76" height="76" viewBox="0 0 76 76" fill="none" xmlns="http://www.w3.org/2000/svg">
<path d="M48.8382 9.39117C48.0744 4.03762 43.4145 0 37.9994 0C34.5169 0 31.2096 1.68049 29.1532 4.49689C28.7332 5.07127 28.8588 5.87698 29.4332 6.29701C30.0057 6.71553 30.8133 6.59137 31.2326 6.01624C32.8066 3.86251 35.3359 2.57639 37.9991 2.57639C42.1405 2.57639 45.7033 5.66263 46.2875 9.75459C46.3796 10.3973 46.9309 10.8611 47.5616 10.8611C47.6216 10.8611 47.6834 10.8566 47.745 10.8482C48.4492 10.7475 48.9386 10.095 48.8382 9.39117Z" fill="white"/>
<path d="M67.4429 23.8114L63.5784 17.3706C63.346 16.9822 62.9267 16.7452 62.4738 16.7452H58.7706C58.0596 16.7452 57.4826 17.3223 57.4826 18.0332C57.4826 18.7442 58.0596 19.3213 58.7706 19.3213H61.7447L64.0634 23.1857H11.9351L14.2538 19.3213H15.618C16.329 19.3213 16.906 18.7442 16.906 18.0332C16.906 17.3223 16.329 16.7452 15.618 16.7452H13.5246C13.0718 16.7452 12.6525 16.9822 12.42 17.3706L8.55565 23.8114C8.31676 24.2099 8.3111 24.7054 8.53942 25.1092C8.76774 25.513 9.19569 25.7628 9.66025 25.7628H66.3382C66.8028 25.7628 67.2304 25.513 67.4591 25.1092C67.6878 24.7054 67.6817 24.2091 67.4429 23.8114Z" fill="white"/>
<path d="M61.022 11.934C60.8417 11.6431 60.5537 11.4366 60.2209 11.3589L42.6609 7.25185C42.3284 7.17373 41.9782 7.23184 41.6876 7.41148C41.3978 7.59187 41.191 7.87981 41.1132 8.21266L39.789 13.8734C39.6267 14.5659 40.0569 15.2588 40.7498 15.4203C41.4423 15.5826 42.1359 15.1524 42.2974 14.4595L43.3285 10.0535L58.3796 13.5741L56.0146 23.6861C55.8523 24.3786 56.2825 25.0715 56.9754 25.233C57.0746 25.256 57.1731 25.267 57.2705 25.267C57.8554 25.267 58.3849 24.8662 58.5226 24.2726L61.1813 12.9066C61.2598 12.5741 61.2024 12.2239 61.022 11.934Z" fill="white"/>
<path d="M38.6806 14.9791L37.507 5.05202C37.4669 4.71276 37.2937 4.40293 37.025 4.19159C36.7563 3.98026 36.4171 3.88365 36.0763 3.92365L14.5315 6.47023C13.8254 6.55401 13.3205 7.19405 13.4039 7.90089L15.3606 24.4578C15.4384 25.1133 15.9942 25.5952 16.6384 25.5952C16.6886 25.5952 16.7403 25.5918 16.7916 25.5862C17.4974 25.5024 18.0023 24.8624 17.9193 24.1555L16.1135 8.8768L35.1 6.63288L36.122 15.2806C36.2057 15.9871 36.8428 16.489 37.5526 16.409C38.2587 16.326 38.7636 15.6855 38.6806 14.9791Z" fill="white"/>
<path d="M48.8681 23.985L46.3113 13.3526C46.2313 13.0209 46.0226 12.7337 45.7316 12.5552C45.4407 12.3782 45.0916 12.3228 44.7576 12.402L24.0065 17.3925C23.3147 17.5586 22.889 18.2545 23.0551 18.9462L24.3329 24.2605C24.4989 24.953 25.1948 25.3791 25.8862 25.2119C26.5779 25.0458 27.0036 24.35 26.8376 23.6582L25.8605 19.5961L44.107 15.2086L46.3626 24.5881C46.5041 25.1787 47.0325 25.5749 47.614 25.5749C47.714 25.5749 47.8152 25.5632 47.9167 25.5387C48.6084 25.3723 49.0341 24.6768 48.8681 23.985Z" fill="white"/>
<path d="M67.6259 24.4087C67.5904 23.7242 67.0251 23.1868 66.339 23.1868H9.661C8.97492 23.1868 8.4096 23.7238 8.37413 24.4087L5.79773 74.6459C5.77962 74.9984 5.90717 75.3433 6.15021 75.5992C6.39362 75.8547 6.731 76 7.08423 76H68.9146C69.2675 76 69.6053 75.8551 69.8498 75.5992C70.0925 75.3433 70.22 74.9988 70.2023 74.6459L67.6259 24.4087ZM8.43979 73.4236L10.8841 25.7628H65.1144L67.5587 73.4236H8.43979Z" fill="white"/>
<path d="M47.6604 28.3387C45.5294 28.3387 43.796 30.0721 43.796 32.2031C43.796 34.3342 45.5294 36.0675 47.6604 36.0675C49.7915 36.0675 51.5248 34.3342 51.5248 32.2031C51.5248 30.0721 49.7915 28.3387 47.6604 28.3387ZM47.6604 33.4915C46.9498 33.4915 46.3724 32.9138 46.3724 32.2035C46.3724 31.4933 46.9502 30.9155 47.6604 30.9155C48.3707 30.9155 48.9484 31.4933 48.9484 32.2035C48.9484 32.9138 48.3707 33.4915 47.6604 33.4915Z" fill="white"/>
<path d="M28.3384 28.3387C26.2074 28.3387 24.474 30.0721 24.474 32.2031C24.474 34.3342 26.2074 36.0675 28.3384 36.0675C30.4695 36.0675 32.2028 34.3342 32.2028 32.2031C32.2028 30.0721 30.4695 28.3387 28.3384 28.3387ZM28.3384 33.4915C27.6282 33.4915 27.0504 32.9138 27.0504 32.2035C27.0504 31.4933 27.6282 30.9155 28.3384 30.9155C29.0487 30.9155 29.6264 31.4933 29.6264 32.2035C29.6264 32.9138 29.0487 33.4915 28.3384 33.4915Z" fill="white"/>
<path d="M47.6604 32.2032H47.5612C46.8502 32.2032 46.2732 32.7803 46.2732 33.4913C46.2732 33.6671 46.3079 33.835 46.3724 33.9879V40.5759C46.3724 45.1924 42.6163 48.9489 37.9994 48.9489C33.3825 48.9489 29.6264 45.1928 29.6264 40.5759V33.4916C29.6264 32.7806 29.0494 32.2036 28.3384 32.2036C27.6274 32.2036 27.0504 32.7806 27.0504 33.4916V40.5762C27.0504 46.6136 31.9621 51.5253 37.9994 51.5253C44.0368 51.5253 48.9484 46.6136 48.9484 40.5762V33.4916C48.9484 32.7806 48.3714 32.2032 47.6604 32.2032Z" fill="white"/>
</svg>
