<svg width="65" height="65" viewBox="0 0 65 65" fill="none" xmlns="http://www.w3.org/2000/svg">
<g clip-path="url(#clip0)">
<path d="M0.205582 5.9626L4.54056 13.5484C4.68679 13.8047 4.93153 13.9902 5.21774 14.0619L9.26206 15.073L23.1332 28.9442L24.6659 27.4119L10.5776 13.3241C10.439 13.185 10.2651 13.0865 10.0748 13.0388L6.18869 12.0639L2.4979 5.6015L5.6622 2.4372L12.1272 6.13156L13.1026 10.0176C13.1499 10.2084 13.2489 10.3827 13.3875 10.5214L27.4758 24.6096L29.008 23.077L15.1368 9.20581L14.1258 5.16373C14.054 4.87708 13.8685 4.63188 13.6122 4.48521L6.02598 0.150679C5.60291 -0.0900537 5.07062 -0.0187253 4.72557 0.324988L0.391036 4.65997C0.0424182 5.00279 -0.0333682 5.53597 0.205582 5.9626Z" fill="#5A84C5"/>
<path d="M45.2606 21.358L21.4195 45.1995L19.8868 43.6668L43.7283 19.8257L45.2606 21.358Z" fill="#5A84C5"/>
<path d="M17.2469 46.0429C17.0508 45.7166 16.6986 45.5173 16.3179 45.5173H9.81585C9.43558 45.5173 9.08295 45.7166 8.88724 46.0429L5.63601 51.4612C5.4296 51.8045 5.4296 52.2338 5.63601 52.5775L8.88724 57.9958C9.08295 58.3217 9.43558 58.5214 9.81585 58.5214H16.3179C16.6986 58.5214 17.0508 58.3217 17.2469 57.9958L20.4977 52.5775C20.7041 52.2338 20.7041 51.8045 20.4977 51.4612L17.2469 46.0429ZM15.7049 56.3539H10.4293L7.82846 52.0194L10.4293 47.6844H15.7049L18.3057 52.0194L15.7049 56.3539Z" fill="#5A84C5"/>
<path d="M52.0796 26.0108C59.237 26.0349 65.0591 20.2519 65.0832 13.0946C65.0868 12.005 64.953 10.9199 64.6851 9.86383C64.5407 9.28295 63.9527 8.92943 63.3718 9.07387C63.181 9.12157 63.0071 9.22009 62.868 9.35874L56.1221 16.1002L50.7698 14.3165L48.9848 8.96554L55.7307 2.21832C56.1538 1.79481 56.1533 1.10872 55.7298 0.68565C55.5903 0.546114 55.4146 0.447146 55.2225 0.39989C48.2814 -1.35791 41.2301 2.84378 39.4723 9.78448C39.2053 10.8375 39.072 11.9199 39.0756 13.0063C39.0782 13.8596 39.166 14.7102 39.339 15.5456L15.6058 39.2783C14.7704 39.1058 13.9198 39.018 13.067 39.0149C5.88468 39.0149 0.0625 44.837 0.0625 52.0194C0.0625 59.2012 5.88468 65.0234 13.067 65.0234C20.2489 65.0234 26.0711 59.2012 26.0711 52.0194C26.0684 51.1661 25.9801 50.3155 25.8076 49.4801L31.4893 43.7983L33.9742 46.2832C34.3977 46.7063 35.0834 46.7063 35.5069 46.2832L36.0486 45.7411C36.5238 45.269 37.2919 45.269 37.7671 45.7411C38.2419 46.2146 38.2428 46.9831 37.7693 47.4579C37.7689 47.4584 37.768 47.4592 37.7671 47.4601L37.2255 48.0018C36.8024 48.4249 36.8024 49.1109 37.2255 49.534L50.1528 62.4614C53.553 65.8927 59.0907 65.9177 62.5221 62.5176C65.953 59.1174 65.9779 53.5792 62.5778 50.1483C62.5595 50.1296 62.5408 50.1109 62.5221 50.0922L49.5947 37.1652C49.1716 36.7422 48.4855 36.7422 48.0625 37.1652L47.5208 37.7069C47.0452 38.1794 46.2775 38.1794 45.8018 37.7069C45.3275 37.2334 45.3261 36.4649 45.7996 35.9905C45.8005 35.9896 45.8014 35.9892 45.8018 35.9883L46.3439 35.4462C46.767 35.0231 46.767 34.3371 46.3439 33.914L43.859 31.4291L49.5408 25.7473C50.3762 25.9199 51.2268 26.0081 52.0796 26.0108ZM56.3375 62.8564C55.5502 62.855 54.7696 62.7128 54.0327 62.436L62.4962 53.972C63.7734 57.3694 62.0549 61.1588 58.6574 62.436C57.916 62.7146 57.1301 62.8573 56.3375 62.8564ZM44.0605 34.691C42.8604 36.1225 43.0485 38.2561 44.48 39.4558C45.7381 40.5101 47.5717 40.5092 48.8284 39.4526L60.9899 51.6248C61.1218 51.7572 61.2453 51.8968 61.3648 52.0385L52.0992 61.3041C51.957 61.1851 51.8175 61.0616 51.6851 60.9292L39.5142 48.7574C40.7143 47.326 40.5262 45.1923 39.0947 43.9927C37.8367 42.9379 36.0026 42.9393 34.7459 43.9954L33.0122 42.2616L42.3263 32.9613L44.0605 34.691ZM48.4365 23.7916L23.8527 48.3705C23.583 48.6397 23.4747 49.0307 23.5665 49.4003C25.0533 55.2389 21.5252 61.1775 15.6861 62.6638C9.84741 64.1505 3.90888 60.6225 2.42213 54.7833C0.935827 48.9447 4.46391 43.0061 10.303 41.5194C12.0693 41.07 13.9198 41.07 15.6861 41.5194C16.0557 41.6099 16.4457 41.5015 16.7159 41.2336L41.2939 16.6543C41.5631 16.385 41.6715 15.9941 41.5787 15.6249C40.1022 9.85447 43.5831 3.97968 49.3535 2.50274C50.444 2.22411 51.5718 2.11712 52.6953 2.18711L46.9787 7.90587C46.6885 8.19564 46.5869 8.62495 46.7166 9.01413L48.8836 15.5166C48.992 15.8398 49.2461 16.0939 49.5697 16.2014L56.0722 18.3689C56.4609 18.4986 56.8903 18.3974 57.1805 18.1076L62.897 12.3911C62.9099 12.5979 62.9166 12.8026 62.9166 13.0063C62.9469 18.9609 58.1447 23.8125 52.1902 23.8433C51.2696 23.8478 50.3521 23.7345 49.4605 23.5063C49.0909 23.414 48.7 23.5219 48.4307 23.7911H48.4365V23.7916Z" fill="#5A84C5"/>
<path d="M56.0981 54.5038L54.5654 56.0365L43.7289 45.1999L45.2611 43.6672L56.0981 54.5038Z" fill="#5A84C5"/>
</g>
<defs>
<clipPath id="clip0">
<rect width="65" height="65" fill="white"/>
</clipPath>
</defs>
</svg>
