<svg width="65" height="62" viewBox="0 0 65 62" fill="none" xmlns="http://www.w3.org/2000/svg">
<path d="M64.0479 0H24.3328C23.8067 0 23.3807 0.406326 23.3807 0.908203C23.3807 1.41008 23.8067 1.81641 24.3328 1.81641H63.0957V9.6875H15.521V1.81641H20.4087C20.9349 1.81641 21.3609 1.41008 21.3609 0.908203C21.3609 0.406326 20.9349 0 20.4087 0H14.5689C14.0432 0 13.6167 0.406326 13.6167 0.908203L13.6172 15.3789H0.952148C0.425987 15.3789 0 15.7852 0 16.2871V54.2098C0 54.7112 0.425987 55.118 0.952148 55.118C1.47831 55.118 1.9043 54.7112 1.9043 54.2098V26.8828H56.875C57.4012 26.8828 57.8271 26.4765 57.8271 25.9746C57.8271 25.4727 57.4012 25.0664 56.875 25.0664H1.9043V17.1953H63.0957V25.0664H60.9162C60.3905 25.0664 59.964 25.4727 59.964 25.9746C59.964 26.4765 60.3905 26.8828 60.9162 26.8828H63.0957V60.1836H1.9043V58.125C1.9043 57.6231 1.47831 57.2168 0.952148 57.2168C0.425987 57.2168 0 57.6231 0 58.125V61.0918C0 61.5937 0.425987 62 0.952148 62H64.0479C64.574 62 65 61.5937 65 61.0918V0.908203C65 0.406326 64.574 0 64.0479 0ZM15.5215 15.3789V11.5039H63.0957V15.3789H15.5215Z" fill="#5A84C5"/>
<path d="M17.5523 5.69141C17.5523 7.19373 18.8337 8.41602 20.4087 8.41602C21.9837 8.41602 23.2652 7.19373 23.2652 5.69141C23.2652 4.18909 21.9837 2.9668 20.4087 2.9668C18.8337 2.9668 17.5523 4.18909 17.5523 5.69141ZM21.3609 5.69141C21.3609 6.19234 20.9339 6.59961 20.4087 6.59961C19.8835 6.59961 19.4566 6.19234 19.4566 5.69141C19.4566 5.19048 19.8835 4.7832 20.4087 4.7832C20.9339 4.7832 21.3609 5.19048 21.3609 5.69141Z" fill="#5A84C5"/>
<path d="M30.8823 5.69141C30.8823 4.18909 29.6009 2.9668 28.0259 2.9668C26.4509 2.9668 25.1694 4.18909 25.1694 5.69141C25.1694 7.19373 26.4509 8.41602 28.0259 8.41602C29.6009 8.41602 30.8823 7.19373 30.8823 5.69141ZM27.0737 5.69141C27.0737 5.19048 27.5007 4.7832 28.0259 4.7832C28.5511 4.7832 28.978 5.19048 28.978 5.69141C28.978 6.19234 28.5511 6.59961 28.0259 6.59961C27.5007 6.59961 27.0737 6.19234 27.0737 5.69141Z" fill="#5A84C5"/>
<path d="M38.4995 5.69141C38.4995 4.18909 37.2181 2.9668 35.6431 2.9668C34.0681 2.9668 32.7866 4.18909 32.7866 5.69141C32.7866 7.19373 34.0681 8.41602 35.6431 8.41602C37.2181 8.41602 38.4995 7.19373 38.4995 5.69141ZM34.6909 5.69141C34.6909 5.19048 35.1179 4.7832 35.6431 4.7832C36.1683 4.7832 36.5952 5.19048 36.5952 5.69141C36.5952 6.19234 36.1683 6.59961 35.6431 6.59961C35.1179 6.59961 34.6909 6.19234 34.6909 5.69141Z" fill="#5A84C5"/>
<path d="M3.93555 21.0703C3.93555 22.5726 5.21698 23.7949 6.79199 23.7949C8.367 23.7949 9.64844 22.5726 9.64844 21.0703C9.64844 19.568 8.367 18.3457 6.79199 18.3457C5.21698 18.3457 3.93555 19.568 3.93555 21.0703ZM7.74414 21.0703C7.74414 21.5712 7.31716 21.9785 6.79199 21.9785C6.26682 21.9785 5.83984 21.5712 5.83984 21.0703C5.83984 20.5694 6.26682 20.1621 6.79199 20.1621C7.31716 20.1621 7.74414 20.5694 7.74414 21.0703Z" fill="#5A84C5"/>
<path d="M11.5527 21.0703C11.5527 22.5726 12.8342 23.7949 14.4092 23.7949C15.9842 23.7949 17.2656 22.5726 17.2656 21.0703C17.2656 19.568 15.9842 18.3457 14.4092 18.3457C12.8342 18.3457 11.5527 19.568 11.5527 21.0703ZM15.3613 21.0703C15.3613 21.5712 14.9343 21.9785 14.4092 21.9785C13.884 21.9785 13.457 21.5712 13.457 21.0703C13.457 20.5694 13.884 20.1621 14.4092 20.1621C14.9343 20.1621 15.3613 20.5694 15.3613 21.0703Z" fill="#5A84C5"/>
<path d="M19.1699 21.0703C19.1699 22.5726 20.4514 23.7949 22.0264 23.7949C23.6014 23.7949 24.8828 22.5726 24.8828 21.0703C24.8828 19.568 23.6014 18.3457 22.0264 18.3457C20.4514 18.3457 19.1699 19.568 19.1699 21.0703ZM22.9785 21.0703C22.9785 21.5712 22.5515 21.9785 22.0264 21.9785C21.5012 21.9785 21.0742 21.5712 21.0742 21.0703C21.0742 20.5694 21.5012 20.1621 22.0264 20.1621C22.5515 20.1621 22.9785 20.5694 22.9785 21.0703Z" fill="#5A84C5"/>
<path d="M29.4407 32.4564H7.09698C6.57131 32.4564 6.14483 32.8632 6.14483 33.3646V51.2865C6.14483 51.7884 6.57131 52.1947 7.09698 52.1947H29.4407C29.9669 52.1947 30.3929 51.7884 30.3929 51.2865V33.3646C30.3929 32.8632 29.9669 32.4564 29.4407 32.4564ZM28.4886 34.2728V41.9117L22.6527 46.7507L14.9904 41.1581C14.4464 40.7613 13.6777 40.7854 13.1625 41.2168L8.04913 45.4967V34.2728H28.4886ZM8.04913 50.3783V47.9134L14.1339 42.8203L24.4891 50.3783H8.04913ZM28.4886 50.3783H27.6232L24.1965 47.8779L28.4886 44.3184V50.3783Z" fill="#5A84C5"/>
<path d="M23.3852 41.4391C25.2339 41.4391 26.7385 40.004 26.7385 38.2401C26.7385 36.4767 25.2339 35.0415 23.3852 35.0415C21.5359 35.0415 20.0313 36.4767 20.0313 38.2401C20.0313 40.004 21.5359 41.4391 23.3852 41.4391ZM23.3852 36.8579C24.1841 36.8579 24.8342 37.478 24.8342 38.2401C24.8342 39.0026 24.1841 39.6227 23.3852 39.6227C22.5858 39.6227 21.9356 39.0026 21.9356 38.2401C21.9356 37.478 22.5858 36.8579 23.3852 36.8579Z" fill="#5A84C5"/>
<path d="M36.017 41.7168H56.8328C57.3585 41.7168 57.785 41.31 57.785 40.8086C57.785 40.3067 57.3585 39.9004 56.8328 39.9004H36.017C35.4908 39.9004 35.0648 40.3067 35.0648 40.8086C35.0648 41.31 35.4908 41.7168 36.017 41.7168Z" fill="#5A84C5"/>
<path d="M36.017 36.5647H46.4247C46.9508 36.5647 47.3768 36.1584 47.3768 35.6565C47.3768 35.1551 46.9508 34.7483 46.4247 34.7483H36.017C35.4908 34.7483 35.0648 35.1551 35.0648 35.6565C35.0648 36.1584 35.4908 36.5647 36.017 36.5647Z" fill="#5A84C5"/>
<path d="M36.017 46.0762H56.8328C57.3585 46.0762 57.785 45.6694 57.785 45.168C57.785 44.6661 57.3585 44.2598 56.8328 44.2598H36.017C35.4908 44.2598 35.0648 44.6661 35.0648 45.168C35.0648 45.6694 35.4908 46.0762 36.017 46.0762Z" fill="#5A84C5"/>
<path d="M36.017 50.4355H56.8328C57.3585 50.4355 57.785 50.0287 57.785 49.5273C57.785 49.0255 57.3585 48.6191 56.8328 48.6191H36.017C35.4908 48.6191 35.0648 49.0255 35.0648 49.5273C35.0648 50.0287 35.4908 50.4355 36.017 50.4355Z" fill="#5A84C5"/>
<path d="M6.91547 56.1747C6.91547 56.6761 7.34146 57.0829 7.86762 57.0829H56.8328C57.3585 57.0829 57.785 56.6761 57.785 56.1747C57.785 55.6728 57.3585 55.2665 56.8328 55.2665H7.86762C7.34146 55.2665 6.91547 55.6728 6.91547 56.1747Z" fill="#5A84C5"/>
</svg>
