<svg xmlns="http://www.w3.org/2000/svg" fill="#fff" width="52" height="52" viewBox="0 0 52 52">
  <defs/>
  <g clip-path="url(#clip0)" opacity=".1">
    <path d="M26 0a26 26 0 000 52 26 26 0 100-52zm22.3 16.5H36.8c-.7-2.4-1.6-4.8-2.8-7h9.8c1.9 2 3.4 4.4 4.5 7zM26 2c1.9 1.7 3.6 3.7 5 5.8H21c1.4-2.1 3.1-4 5-5.8zm-7 5.8h-9c3.8-3.4 8.6-5.4 13.7-6a32.3 32.3 0 00-4.7 6zm9.3-6c5.1.5 10 2.6 13.7 6h-9c-1.3-2.2-2.9-4.1-4.7-6zM32 9.6c1.3 2.2 2.3 4.6 3 7H17a32 32 0 013-7h12zm-23.8 0H18a33.8 33.8 0 00-2.8 7H3.7c1-2.6 2.6-5 4.5-7zM3 18.2h46c1.7 5 1.7 10.5 0 15.6H3c-1.7-5-1.7-10.5 0-15.6zM26 50a30.1 30.1 0 01-5-5.8h10c-1.4 2.1-3.1 4-5 5.8zm7-5.8h9a24.2 24.2 0 01-13.7 6c1.8-1.8 3.4-3.8 4.7-6zm-9.3 6c-5.1-.5-9.9-2.6-13.7-6h9c1.3 2.2 2.9 4.2 4.7 6zM20 42.5a32 32 0 01-3-7h18c-.7 2.5-1.7 4.8-3 7H20zm-16.3-7h11.5c.7 2.4 1.6 4.8 2.8 7H8.2c-1.9-2-3.4-4.4-4.5-7zm40.1 7H34c1.2-2.2 2.1-4.6 2.8-7h11.5a24.3 24.3 0 01-4.5 7z"/>
    <path d="M7 30.6c0 .3.4.6.8.6s.7-.2.8-.6l1.8-6 1.8 6c0 .4.4.6.8.6s.7-.3.8-.6l2.6-9.6-1.6-.4-1.8 6.6-1.8-5.8a.9.9 0 00-1.6 0l-1.8 5.8L6 20.6l-1.6.4L7 30.6zM23.4 31.2c.4 0 .7-.2.8-.6l1.8-6 1.8 6c0 .4.4.6.8.6s.7-.3.8-.6L32 21l-1.6-.4-1.8 6.6-1.8-5.8a.9.9 0 00-1.6 0l-1.8 5.8-1.8-6.6-1.6.4 2.6 9.6c0 .3.4.6.8.6zM39 31.2c.4 0 .7-.2.8-.6l1.8-6 1.8 6c0 .4.4.6.8.6s.7-.3.8-.6l2.6-9.6-1.6-.4-1.8 6.6-1.8-5.8a.9.9 0 00-1.6 0L39 27.2l-1.8-6.6-1.6.4 2.6 9.6c0 .3.4.6.8.6z"/>
  </g>
  <defs>
    <clipPath id="clip0">
      <path d="M0 0h52v52H0z"/>
    </clipPath>
  </defs>
</svg>