<svg width="23" height="23" viewBox="0 0 23 23" fill="none" xmlns="http://www.w3.org/2000/svg">
<g clip-path="url(#clip0)">
<path d="M6.41038 7.33622L6.43118 7.34579C6.49183 7.37355 6.55539 7.38672 6.61801 7.38672C6.78827 7.38672 6.95115 7.28942 7.02675 7.12451C7.13007 6.89896 7.03102 6.63235 6.80547 6.52898L6.78687 6.52049C6.56159 6.41645 6.29471 6.51483 6.19076 6.74012C6.08677 6.96535 6.1851 7.23228 6.41038 7.33622Z" fill="white"/>
<path d="M22.8943 4.35813C22.7655 4.2053 22.5513 4.15589 22.3686 4.23693C22.0952 4.35817 21.8169 4.46491 21.5346 4.55682C21.9005 4.09318 22.1849 3.56431 22.3703 2.99219C22.428 2.81443 22.3695 2.61956 22.2236 2.50286C22.0777 2.38615 21.8747 2.372 21.714 2.46719C20.9294 2.93208 20.0861 3.2668 19.2038 3.46382C18.2821 2.57815 17.0382 2.07471 15.7516 2.07471C13.0048 2.07471 10.7702 4.30934 10.7702 7.05613C10.7702 7.2364 10.78 7.41788 10.7995 7.59937C10.0933 7.53212 9.39419 7.40517 8.71443 7.2205C8.47504 7.15545 8.2282 7.29682 8.16315 7.53625C8.0981 7.77569 8.23947 8.02249 8.4789 8.08753C9.39944 8.33761 10.3528 8.48895 11.3124 8.53729C11.4531 8.54439 11.588 8.4855 11.6785 8.37818C11.769 8.27086 11.8041 8.12747 11.7734 7.9905C11.7039 7.67996 11.6686 7.36555 11.6686 7.05613C11.6686 4.80474 13.5003 2.97314 15.7516 2.97314C16.8767 2.97314 17.9617 3.44244 18.7284 4.26069C18.834 4.37344 18.9902 4.42407 19.1419 4.39451C19.7587 4.27466 20.3592 4.09453 20.938 3.85626C20.6135 4.3066 20.1992 4.68974 19.7164 4.97872C19.5346 5.08757 19.4535 5.30867 19.5219 5.5092C19.5904 5.70973 19.7895 5.83524 20 5.81027C20.4149 5.76103 20.8259 5.68422 21.2307 5.5804C20.8625 5.96565 20.4586 6.31681 20.0216 6.63108C19.9012 6.71769 19.8312 6.85811 19.8347 7.00636L19.8484 7.58814C19.8456 13.7037 15.1904 20.0275 7.40199 20.0275C5.62215 20.0275 3.87824 19.6491 2.27422 18.9227C4.16246 18.78 5.93444 18.0949 7.43703 16.9199C7.58667 16.8029 7.64655 16.6044 7.58653 16.4242C7.52652 16.2439 7.35963 16.1209 7.1697 16.1169C5.66599 16.0855 4.32068 15.2372 3.63342 13.9434C3.68243 13.9448 3.7318 13.9455 3.78143 13.9455C4.22706 13.9455 4.66716 13.8887 5.08951 13.7768C5.2913 13.7234 5.42966 13.538 5.4235 13.3294C5.41735 13.1207 5.2683 12.9438 5.06373 12.9023C3.3881 12.5627 2.11821 11.2072 1.84436 9.55913C2.33962 9.74016 2.85295 9.83823 3.37808 9.85166C3.57812 9.85642 3.75745 9.72893 3.81787 9.5381C3.8782 9.34728 3.80506 9.13956 3.63849 9.02864C2.50116 8.27149 1.82217 7.00227 1.82217 5.6335C1.82217 5.12728 1.91498 4.62909 2.09359 4.16492C2.82595 4.97356 3.65278 5.68893 4.55885 6.29713C4.76486 6.43544 5.04392 6.38051 5.18218 6.17454C5.3205 5.96857 5.26556 5.68947 5.05959 5.5512C4.03452 4.86314 3.11812 4.02795 2.33576 3.06887C2.24277 2.95486 2.0997 2.89381 1.95316 2.90491C1.80649 2.91623 1.67465 2.99861 1.60021 3.12552C1.15769 3.87998 0.92378 4.74724 0.92378 5.63355C0.92378 6.72874 1.2801 7.77164 1.91691 8.62058C1.79571 8.56761 1.67577 8.50845 1.5574 8.44309C1.41823 8.36627 1.24883 8.3687 1.11191 8.44947C0.975036 8.53028 0.891032 8.67736 0.891032 8.83634V8.89159C0.891032 10.5536 1.72042 12.0633 3.01673 12.977C3.01404 12.9765 3.01134 12.976 3.00864 12.9755C2.85299 12.9461 2.69325 13.0009 2.58836 13.1197C2.48351 13.2385 2.44901 13.4038 2.49761 13.5546C3.02468 15.1908 4.34651 16.4129 5.95848 16.8455C4.62489 17.638 3.11318 18.0523 1.52834 18.0523C1.18437 18.0523 0.847682 18.0334 0.498955 17.9947C0.291686 17.9716 0.0955122 18.0944 0.0258385 18.2912C-0.0438801 18.4879 0.0311393 18.7067 0.206873 18.8193C2.35723 20.1975 4.84527 20.926 7.40204 20.926C9.45842 20.926 11.3831 20.5174 13.1224 19.7115C14.7179 18.9725 16.1277 17.9162 17.3127 16.5721C19.4951 14.0965 20.7468 10.82 20.7468 7.58275C20.7468 7.57924 20.7468 7.57569 20.7467 7.57219L20.7384 7.21848C21.594 6.5707 22.3287 5.79055 22.9245 4.89674C23.0354 4.73048 23.023 4.51095 22.8943 4.35813Z" fill="white"/>
<path d="M16.9219 12.983C16.7092 12.8554 16.4332 12.9244 16.3056 13.1371L16.3048 13.1384C16.1771 13.3512 16.2465 13.6264 16.4592 13.7541C16.5314 13.7974 16.6109 13.818 16.6894 13.818C16.8424 13.818 16.9916 13.7399 17.076 13.5994C17.2036 13.3866 17.1347 13.1106 16.9219 12.983Z" fill="white"/>
<path d="M16.0453 14.3355C15.8539 14.1777 15.5708 14.2049 15.4129 14.3964C14.6266 15.3505 13.6969 16.1377 12.6497 16.7362C12.4343 16.8593 12.3595 17.1337 12.4826 17.3491C12.5655 17.4942 12.7171 17.5755 12.873 17.5755C12.9486 17.5755 13.0252 17.5564 13.0955 17.5162C14.2374 16.8636 15.2504 16.0062 16.1062 14.9679C16.264 14.7764 16.2368 14.4933 16.0453 14.3355Z" fill="white"/>
</g>
<defs>
<clipPath id="clip0">
<rect width="23" height="23" fill="white"/>
</clipPath>
</defs>
</svg>
