<svg width="23" height="23" viewBox="0 0 23 23" fill="none" xmlns="http://www.w3.org/2000/svg">
<path d="M3.35663 10.5466H6.21891C7.44286 10.5466 8.26515 9.79007 8.2652 8.66414C8.2652 7.55579 7.42372 6.78174 6.21896 6.78174H3.35663C3.10857 6.78174 2.90741 6.98285 2.90741 7.23096V10.0973C2.90741 10.3454 3.10857 10.5466 3.35663 10.5466ZM3.80585 7.68018H6.21896C6.92697 7.68018 7.36676 8.05721 7.36676 8.66414C7.36676 9.55225 6.56409 9.64811 6.21896 9.64811H3.80585V7.68018Z" fill="white"/>
<path d="M6.34178 12.2075H3.35663C3.10857 12.2075 2.90741 12.4086 2.90741 12.6567V15.7688C2.90741 16.0169 3.10857 16.2181 3.35663 16.2181H6.34178C6.98762 16.2181 7.53239 16.0372 7.91728 15.6951C8.31893 15.338 8.53127 14.8255 8.53127 14.2128C8.53127 13.0321 7.6309 12.2075 6.34178 12.2075ZM6.34178 15.3196H3.80585V13.106H6.34178C7.13811 13.106 7.63283 13.5301 7.63283 14.2128C7.63283 15.1276 6.93075 15.3196 6.34178 15.3196Z" fill="white"/>
<path d="M9.65452 11.2551C9.95091 11.0609 10.2178 10.8186 10.4427 10.5358C10.9603 9.88492 11.2339 9.06079 11.2339 8.15247C11.2339 7.09137 10.834 6.11652 10.1081 5.40747C9.31442 4.63234 8.18908 4.22266 6.8536 4.22266H0.449219C0.20116 4.22266 0 4.42377 0 4.67188V18.3281C0 18.5762 0.20116 18.7773 0.449219 18.7773H7.07879C8.44082 18.7773 9.57748 18.3591 10.3658 17.5677C11.1078 16.8229 11.5 15.8044 11.5 14.6223C11.5 13.1866 10.7586 11.9052 9.65452 11.2551ZM7.07879 17.8789H0.898438V5.12109H6.85364C9.25885 5.12109 10.3355 6.64359 10.3355 8.15247C10.3355 9.72792 9.33292 10.64 8.33934 10.845C8.12628 10.889 7.97538 11.0792 7.981 11.2966C7.98666 11.5141 8.14726 11.6962 8.36221 11.7291C9.63884 11.9241 10.6016 13.1679 10.6016 14.6223C10.6016 16.6311 9.25171 17.8789 7.07879 17.8789Z" fill="white"/>
<path d="M20.388 4.58203H14.9075C14.6595 4.58203 14.4583 4.78315 14.4583 5.03125V6.46875C14.4583 6.71685 14.6595 6.91797 14.9075 6.91797H20.388C20.6361 6.91797 20.8372 6.71685 20.8372 6.46875V5.03125C20.8372 4.78315 20.6361 4.58203 20.388 4.58203ZM19.9388 6.01953H15.3568V5.48047H19.9388V6.01953Z" fill="white"/>
<path d="M13.1938 13.1829V13.1753C13.1938 12.9272 12.9927 12.7261 12.7446 12.7261C12.4966 12.7261 12.2954 12.9272 12.2954 13.1753V13.1829C12.2954 13.431 12.4966 13.6321 12.7446 13.6321C12.9927 13.6321 13.1938 13.431 13.1938 13.1829Z" fill="white"/>
<path d="M21.5846 9.04242C20.5974 7.96775 19.2426 7.42285 17.5576 7.42285C16.0478 7.42285 14.7788 7.94269 13.7858 8.96785C13.1552 9.61913 12.7193 10.4359 12.4904 11.3957C12.4328 11.637 12.5818 11.8792 12.8231 11.9368C13.0646 11.9944 13.3068 11.8455 13.3643 11.6041C13.5553 10.8034 13.9143 10.1267 14.4312 9.59285C15.26 8.73722 16.2826 8.32129 17.5576 8.32129C19.0007 8.32129 20.1015 8.75595 20.9229 9.65012C21.6759 10.4702 22.0712 11.7351 22.0999 13.4138H15.5909C15.4698 13.4138 15.3539 13.4627 15.2693 13.5494C15.1848 13.6361 15.1388 13.7533 15.1418 13.8744C15.1644 14.7732 15.4338 15.4918 15.9422 16.0098C16.456 16.5335 17.1025 16.7991 17.8639 16.7991C18.3974 16.7991 18.8581 16.6541 19.2333 16.368C19.3883 16.2498 19.5279 16.1029 19.6504 15.9295H21.6438C21.3439 16.4526 20.9483 16.8783 20.4679 17.1946C19.7786 17.6486 18.8925 17.8789 17.8342 17.8789C16.1407 17.8789 14.9317 17.3784 14.14 16.3513C13.8047 15.91 13.5556 15.3977 13.3997 14.8287C13.3341 14.5894 13.0869 14.4486 12.8478 14.5141C12.6085 14.5797 12.4676 14.8268 12.5332 15.0661C12.7197 15.7464 13.0195 16.3617 13.4266 16.8973C14.3881 18.1448 15.8711 18.7773 17.8343 18.7773C19.0712 18.7773 20.1236 18.4972 20.9622 17.9448C21.5628 17.5493 22.0554 17.0198 22.4262 16.371C22.556 16.144 22.671 15.897 22.7678 15.6369C22.8191 15.499 22.7996 15.3447 22.7157 15.2239C22.6317 15.103 22.4939 15.031 22.3468 15.031H19.4021C19.2384 15.031 19.0877 15.1199 19.0087 15.2632C18.9164 15.4306 18.8087 15.5619 18.6885 15.6535C18.4705 15.8198 18.2007 15.9006 17.864 15.9006C17.3457 15.9006 16.9269 15.7306 16.5835 15.3805C16.3195 15.1115 16.1534 14.7595 16.081 14.3123H22.5484C22.7931 14.3123 22.9927 14.1164 22.9975 13.8718C23.0392 11.7336 22.5639 10.1088 21.5846 9.04242Z" fill="white"/>
<path d="M15.6403 12.6922H19.791C19.9122 12.6922 20.0282 12.6433 20.1128 12.5565C20.1973 12.4697 20.2432 12.3525 20.2401 12.2314C20.2173 11.3508 19.9641 10.6604 19.4875 10.1793C19.0065 9.69423 18.4137 9.44824 17.7255 9.44824C16.9933 9.44824 16.3778 9.7082 15.896 10.221V10.221C15.4205 10.7271 15.1834 11.4088 15.191 12.2471C15.1933 12.4936 15.3938 12.6922 15.6403 12.6922ZM16.5507 10.8362C16.8602 10.5068 17.2445 10.3467 17.7255 10.3467C18.1714 10.3467 18.5391 10.4989 18.8493 10.8118C19.0806 11.0452 19.2316 11.3744 19.3003 11.7937H16.1171C16.1737 11.4005 16.3171 11.0849 16.5507 10.8362Z" fill="white"/>
<path d="M1.88672 10.7363C1.63866 10.7363 1.4375 10.9374 1.4375 11.1855V14.8467C1.4375 15.0948 1.63866 15.2959 1.88672 15.2959C2.13478 15.2959 2.33594 15.0948 2.33594 14.8467V11.1855C2.33594 10.9374 2.13478 10.7363 1.88672 10.7363Z" fill="white"/>
<path d="M1.88672 8.69238C1.63866 8.69238 1.4375 8.8935 1.4375 9.1416V9.1469C1.4375 9.39501 1.63866 9.59612 1.88672 9.59612C2.13478 9.59612 2.33594 9.39501 2.33594 9.1469V9.1416C2.33594 8.8935 2.13478 8.69238 1.88672 8.69238Z" fill="white"/>
</svg>
