<svg width="50" height="50" viewBox="0 0 50 50" fill="none" xmlns="http://www.w3.org/2000/svg">
<g clip-path="url(#clip0)">
<path d="M48.9586 18.75H26.0959C25.5201 18.75 25.0542 19.2159 25.0542 19.7917C25.0542 20.3675 25.5201 20.8334 26.0959 20.8334H48.9586C49.5344 20.8334 50.0003 20.3675 50.0003 19.7917C50.0003 19.2159 49.5344 18.75 48.9586 18.75Z" fill="#5A84C5"/>
<path d="M48.9583 29.1666H26.0417C25.4659 29.1666 25 29.6325 25 30.2083C25 30.7841 25.4659 31.25 26.0417 31.25H48.9583C49.534 31.25 49.9999 30.7841 49.9999 30.2083C49.9999 29.6325 49.534 29.1666 48.9583 29.1666Z" fill="#5A84C5"/>
<path d="M48.9583 39.5833H26.0417C25.4659 39.5833 25 40.0492 25 40.6249C25 41.2007 25.4659 41.6666 26.0417 41.6666H48.9583C49.534 41.6666 49.9999 41.2007 49.9999 40.6249C49.9999 40.0491 49.534 39.5833 48.9583 39.5833Z" fill="#5A84C5"/>
<path d="M26.0417 10.4167H48.9583C49.534 10.4167 49.9999 9.95078 49.9999 9.37501C49.9999 8.79923 49.534 8.33331 48.9583 8.33331H26.0417C25.4659 8.33331 25 8.79923 25 9.37501C25 9.95078 25.4659 10.4167 26.0417 10.4167Z" fill="#5A84C5"/>
<path d="M14.166 24.1669L1.66604 14.7919C1.20823 14.4492 0.55423 14.5397 0.208333 15.0004C-0.137563 15.4602 -0.0439115 16.1133 0.416828 16.4581L11.8049 25L0.416828 33.5418C-0.0440092 33.8867 -0.137563 34.5398 0.208333 34.9995C0.412824 35.2732 0.725127 35.4166 1.04251 35.4166C1.26018 35.4166 1.47893 35.3485 1.66604 35.2081L14.166 25.8332C14.4285 25.6369 14.5831 25.3276 14.5831 25.0001C14.5831 24.6724 14.4285 24.3632 14.166 24.1669Z" fill="#5A84C5"/>
<path d="M19.7917 6.25006C19.2159 6.25006 18.75 6.71598 18.75 7.29175V42.7082C18.75 43.284 19.2159 43.7499 19.7917 43.7499C20.3675 43.7499 20.8334 43.284 20.8334 42.7082V7.29175C20.8334 6.71598 20.3675 6.25006 19.7917 6.25006Z" fill="#5A84C5"/>
</g>
<defs>
<clipPath id="clip0">
<rect width="50" height="50" fill="white"/>
</clipPath>
</defs>
</svg>
