<svg width="64" height="64" viewBox="0 0 64 64" fill="none" xmlns="http://www.w3.org/2000/svg">
<g clip-path="url(#clip0)">
<path d="M26.6808 4.27917C14.3143 4.27917 4.28931 14.3042 4.28931 26.6707C4.28931 39.0372 14.3143 49.0622 26.6808 49.0622C39.0473 49.0622 49.0723 39.0372 49.0723 26.6707C49.0589 14.3098 39.0417 4.29264 26.6808 4.27917ZM26.6808 6.4117C33.2671 6.4169 39.439 9.62688 43.2249 15.0164L40.5593 17.6821C39.9106 17.2896 39.1679 17.0795 38.4097 17.0743C36.0542 17.0743 34.1447 18.9839 34.1447 21.3394C34.1484 22.0984 34.3572 22.8423 34.7492 23.4922L27.7673 30.474C26.4453 29.6679 24.7838 29.6679 23.4618 30.474L18.6124 25.6247C19.0044 24.9748 19.2132 24.2309 19.217 23.4719C19.2199 21.1211 17.3166 19.213 14.9658 19.21C13.0216 19.2076 11.3229 20.5227 10.8383 22.4056H6.88246C8.90129 13.0829 17.142 6.42569 26.6808 6.4117ZM40.5422 21.3394C40.5422 22.5172 39.5875 23.4719 38.4097 23.4719C37.2319 23.4719 36.2772 22.5172 36.2772 21.3394C36.2772 20.1615 37.2319 19.2068 38.4097 19.2068C39.5875 19.2068 40.5422 20.1615 40.5422 21.3394ZM27.7471 34.1345C27.7471 35.3123 26.7924 36.267 25.6146 36.267C24.4367 36.267 23.482 35.3123 23.482 34.1345C23.482 32.9567 24.4367 32.002 25.6146 32.002C26.7924 32.002 27.7471 32.9567 27.7471 34.1345ZM17.0845 23.4719C17.0845 24.6497 16.1298 25.6044 14.9519 25.6044C13.7741 25.6044 12.8194 24.6497 12.8194 23.4719C12.8194 22.2941 13.7741 21.3394 14.9519 21.3394C16.1298 21.3394 17.0845 22.2941 17.0845 23.4719ZM36.5243 44.3848C33.5132 46.0567 30.1251 46.9326 26.6808 46.9295C15.4997 46.9371 6.42943 37.8794 6.42183 26.6983C6.4213 25.9767 6.45942 25.2555 6.53592 24.538H10.8383C11.323 26.4153 13.0131 27.7295 14.9519 27.7368C15.711 27.7331 16.4548 27.5242 17.1047 27.1322L21.9541 31.9816C21.5621 32.6315 21.3532 33.3753 21.3495 34.1344C21.3495 36.4899 23.259 38.3994 25.6146 38.3994C27.9701 38.3994 29.8796 36.4899 29.8796 34.1344C29.8759 33.3753 29.667 32.6315 29.275 31.9816L36.2569 24.9997C36.9068 25.3917 37.6507 25.6006 38.4097 25.6043C40.7652 25.6043 42.6748 23.6947 42.6748 21.3392C42.671 20.5802 42.4622 19.8363 42.0702 19.1865L44.3946 16.8631C49.8212 26.6364 46.2975 38.9583 36.5243 44.3848Z" fill="#5A84C5"/>
<path d="M53.3373 10.6778C55.2762 10.6704 56.9662 9.3564 57.451 7.47898H64V5.34646H57.451C56.9662 3.46903 55.2762 2.155 53.3373 2.14767C50.9818 2.14767 49.0723 4.05721 49.0723 6.41272C49.076 7.17176 49.2849 7.91562 49.6769 8.5655L47.8034 10.4389C38.8395 -1.23945 22.1056 -3.43995 10.4272 5.52399C-1.25117 14.4879 -3.45166 31.222 5.51227 42.9004C13.9736 53.9238 29.4838 56.5978 41.1478 49.044L44.3658 52.262L45.8735 53.7697L54.4569 62.3531C56.6399 64.5362 60.1791 64.5362 62.3622 62.3531C64.5452 60.1701 64.5452 56.6309 62.3622 54.4479L53.7788 45.8644L52.2711 44.3567L49.0531 41.1388C54.7655 32.34 54.7655 21.0036 49.0531 12.2047L51.1856 10.0721C51.8351 10.4642 52.5787 10.6735 53.3373 10.6778ZM53.3373 4.28019C54.5152 4.28019 55.4699 5.2349 55.4699 6.41272C55.4699 7.59054 54.5152 8.54524 53.3373 8.54524C52.1595 8.54524 51.2048 7.59054 51.2048 6.41272C51.2048 5.2349 52.1596 4.28019 53.3373 4.28019ZM60.8545 55.9555C62.2201 57.2905 62.245 59.4798 60.9101 60.8454C59.5751 62.211 57.3858 62.236 56.0202 60.901C56.0014 60.8827 55.983 60.8642 55.9646 60.8454L47.3812 52.262L52.2711 47.3721L60.8545 55.9555ZM50.7634 45.8644L45.8735 50.7543L42.9221 47.8029C43.0724 47.6877 43.2132 47.5609 43.3614 47.4425C43.5096 47.3242 43.6813 47.1823 43.8401 47.0491C44.0736 46.8529 44.304 46.6545 44.53 46.4509C44.6462 46.3443 44.7571 46.2376 44.8712 46.131C45.3084 45.7216 45.7317 45.2983 46.1411 44.8611C46.2478 44.747 46.3544 44.6361 46.461 44.5199C46.6647 44.2938 46.863 44.0635 47.0592 43.83C47.1929 43.6722 47.324 43.5127 47.4526 43.3513C47.5699 43.2041 47.6968 43.0634 47.812 42.913L50.7634 45.8644ZM46.6284 40.9116C46.2925 41.3808 45.946 41.8404 45.5803 42.2829C45.4736 42.4119 45.3596 42.5366 45.2497 42.6635C44.9235 43.0431 44.5865 43.4114 44.2389 43.7682C44.0875 43.9245 43.9336 44.0784 43.7772 44.2299C43.4218 44.5775 43.0536 44.9144 42.6726 45.2407C42.5457 45.3473 42.4209 45.4635 42.2919 45.5712C41.8494 45.9369 41.3899 46.2835 40.9207 46.6194C29.8828 54.505 14.542 51.9496 6.65637 40.9116C-1.22931 29.8737 1.32612 14.533 12.3641 6.6473C23.402 -1.23838 38.7427 1.31692 46.6284 12.355C52.7302 20.896 52.7302 32.3706 46.6284 40.9116Z" fill="#5A84C5"/>
</g>
<defs>
<clipPath id="clip0">
<rect width="64" height="64" fill="white"/>
</clipPath>
</defs>
</svg>
