<svg width="61" height="61" viewBox="0 0 61 61" xmlns="http://www.w3.org/2000/svg">
<g clip-path="url(#clip0)">
<path d="M53.9749 43.0482C53.6403 42.9095 53.2553 42.9862 52.9991 43.2422L43.2145 53.0268C42.9585 53.2829 42.8819 53.668 43.0206 54.0025C43.159 54.3372 43.4857 54.5552 43.8478 54.5552H53.6323C54.1269 54.5552 54.5277 54.1544 54.5277 53.6599V43.8753C54.5276 43.5132 54.3094 43.1868 53.9749 43.0482ZM46.009 52.7647L52.7368 46.0369V52.7647H46.009Z" />
<path d="M60.4474 28.6971C60.1129 28.5584 59.7278 28.635 59.4717 28.8911L56.7902 31.5726V13.3403C56.7902 12.8458 56.3893 12.445 55.8948 12.445H49.0155L51.5127 9.94778C51.5131 9.94742 51.5134 9.94694 51.5138 9.94659L53.9199 7.54042C54.4355 7.02489 54.7194 6.33912 54.7194 5.60998C54.7194 4.88084 54.4355 4.1953 53.9199 3.67954L51.1375 0.897122C50.622 0.381599 49.9362 0.0976868 49.2071 0.0976868C48.4779 0.0976868 47.7923 0.381599 47.2766 0.897122L44.8693 3.30448L41.9603 6.21343L35.7289 12.4448H7.93716V3.58732C7.93716 3.09277 7.53626 2.69198 7.04182 2.69198C3.15902 2.69222 0 5.851 0 9.73404V47.7621C0 47.8283 0.00762502 47.8926 0.0212071 47.9545C0.144875 49.6021 0.857695 51.133 2.04898 52.2951C3.32236 53.537 5.00332 54.221 6.78233 54.221H34.1416L28.9889 59.3737C28.7328 59.6299 28.6562 60.0148 28.7948 60.3495C28.9334 60.684 29.2599 60.9022 29.622 60.9022H60.1048C60.5992 60.9022 61.0001 60.5014 61.0001 60.0068V29.5243C61.0001 29.1622 60.7819 28.8357 60.4474 28.6971ZM48.5431 2.16347C48.9091 1.79723 49.5054 1.79723 49.8714 2.16347L52.6539 4.946C53.0202 5.31212 53.0202 5.90819 52.6539 6.27443L50.8798 8.04867L46.7687 3.93772L48.5431 2.16347ZM45.5025 5.20395L49.6135 9.31478L47.9706 10.9576L43.8599 6.84678L45.5025 5.20395ZM59.2097 39.5848H57.5578C57.0632 39.5848 56.6624 39.9856 56.6624 40.4801C56.6624 40.9747 57.0632 41.3755 57.5578 41.3755H59.2097V44.0735H57.5578C57.0632 44.0735 56.6624 44.4743 56.6624 44.9689C56.6624 45.4634 57.0632 45.8642 57.5578 45.8642H59.2097V48.5622H57.5578C57.0632 48.5622 56.6624 48.963 56.6624 49.4575C56.6624 49.9521 57.0632 50.3529 57.5578 50.3529H59.2097V53.0509H57.5578C57.0632 53.0509 56.6624 53.4518 56.6624 53.9463C56.6624 54.4408 57.0632 54.8416 57.5578 54.8416H59.2097V59.1119H31.7834L40.8272 50.0682C41.1769 49.7184 41.1769 49.1517 40.8272 48.802C40.787 48.7618 40.7439 48.7271 40.6988 48.6961C40.3502 48.4573 39.8705 48.4925 39.5608 48.802L35.9323 52.4305H6.78245C4.06699 52.4305 1.881 50.3106 1.79498 47.6C1.8001 47.4299 1.81332 47.2611 1.83453 47.0943C1.83465 47.0934 1.83477 47.0924 1.83489 47.0915C1.8449 47.0123 1.85693 46.9334 1.87063 46.855C1.87218 46.8461 1.87385 46.8371 1.8754 46.8282C1.88791 46.7583 1.90196 46.6887 1.91733 46.6193C1.92162 46.6 1.92615 46.5807 1.93068 46.5616C1.94426 46.5029 1.95891 46.4447 1.97464 46.3867C1.98322 46.3552 1.99215 46.3241 2.00133 46.2928C2.01443 46.2473 2.02802 46.2019 2.04243 46.1569C2.05685 46.112 2.07222 46.0676 2.08782 46.0232C2.09867 45.9921 2.10939 45.961 2.12106 45.9301C2.14287 45.8715 2.16598 45.8135 2.18981 45.7559C2.1966 45.7394 2.20327 45.7226 2.2103 45.706C2.24092 45.6345 2.27273 45.5639 2.30633 45.494C2.30776 45.4911 2.30907 45.4881 2.3105 45.4851C3.01081 44.0359 4.3577 42.9554 5.97408 42.6201C5.97861 42.6192 5.98314 42.6181 5.98766 42.6172C6.06177 42.602 6.13659 42.589 6.21189 42.577C6.2244 42.575 6.23691 42.5725 6.24965 42.5706C6.31768 42.5602 6.38643 42.5521 6.45517 42.5444C6.47447 42.5422 6.49365 42.5392 6.51307 42.5373C6.57943 42.5307 6.64639 42.5262 6.71335 42.5221C6.73456 42.5208 6.75576 42.5185 6.77697 42.5174C6.86466 42.513 6.95306 42.5108 7.04182 42.5108C7.53626 42.5108 7.93716 42.11 7.93716 41.6154V35.1236C7.93716 34.629 7.53626 34.2282 7.04182 34.2282C6.54739 34.2282 6.14648 34.629 6.14648 35.1236V40.7764C4.63458 40.9676 3.23122 41.642 2.12464 42.7226C2.00824 42.8363 1.89791 42.9544 1.79045 43.0745V9.73404C1.79045 7.1438 3.67597 4.98532 6.14636 4.55904V13.3403V31.5423V31.5424C6.14636 32.0368 6.54727 32.4378 7.0417 32.4378C7.53614 32.4378 7.93705 32.0368 7.93705 31.5424V31.5423V14.2357H33.9383L28.9888 19.1852C28.6391 19.535 28.6391 20.1018 28.9888 20.4515C29.3384 20.801 29.9053 20.801 30.2549 20.4515L36.7329 13.9734C36.7332 13.9732 36.7333 13.973 36.7335 13.9728L42.5935 8.11289L46.7042 12.2238L46.2219 12.7061C46.2215 12.7065 46.2211 12.7068 46.2207 12.7072L28.1675 30.7606L24.0567 26.6498L27.6152 23.0913C27.9649 22.7415 27.9649 22.1747 27.6152 21.825C27.2655 21.4755 26.6986 21.4755 26.3491 21.825L22.1573 26.0167C22.1349 26.0391 22.114 26.0628 22.0943 26.0871C22.0878 26.0952 22.0819 26.1039 22.0757 26.1123C22.0631 26.1291 22.0507 26.146 22.0392 26.1637C22.0326 26.1739 22.0266 26.1844 22.0204 26.195C22.0106 26.2117 22.001 26.2286 21.9923 26.2459C21.9866 26.2571 21.9815 26.2684 21.9762 26.2801C21.9683 26.2976 21.9609 26.3155 21.9541 26.3333C21.9517 26.3397 21.9486 26.3456 21.9463 26.3519L20.202 31.2933L19.0127 34.6625C18.997 34.7073 18.9857 34.7528 18.9772 34.7987H15.9997C15.5052 34.7987 15.1043 35.1994 15.1043 35.694C15.1043 36.1886 15.5052 36.5893 15.9997 36.5893H40.7945C41.2891 36.5893 41.6899 36.1886 41.6899 35.694C41.6899 35.1994 41.2891 34.7987 40.7945 34.7987H23.0053L28.4655 32.8712C28.47 32.8695 28.4743 32.8673 28.4788 32.8656C28.5 32.8577 28.5209 32.8489 28.5415 32.8395C28.5497 32.8357 28.5579 32.8321 28.5659 32.8282C28.5874 32.8175 28.6085 32.8057 28.6292 32.793C28.6359 32.789 28.6428 32.7853 28.6493 32.7811C28.6709 32.7673 28.6919 32.7522 28.7125 32.7362C28.7176 32.7323 28.723 32.7288 28.728 32.7248C28.7529 32.7048 28.7773 32.6832 28.8004 32.6601L47.2248 14.2358H54.9994V33.3634L42.1922 46.1707C41.8425 46.5204 41.8425 47.0872 42.1922 47.4369C42.214 47.4587 42.2367 47.4792 42.2602 47.4984C42.4244 47.6322 42.6249 47.6991 42.8253 47.6991C43.0257 47.6991 43.2263 47.6322 43.3904 47.4984C43.4139 47.4793 43.4366 47.4587 43.4584 47.4369C43.4588 47.4365 43.4584 47.4369 43.4588 47.4365L59.2097 31.6855V39.5848ZM26.5299 31.6552L23.9653 32.5606L22.2566 30.8519L23.1619 28.2872L26.5299 31.6552Z" />
</g>
<defs>
<clipPath id="clip0">
<rect width="61" height="61" fill="white"/>
</clipPath>
</defs>
</svg>
