<svg width="63" height="63" viewBox="0 0 63 63" fill="none" xmlns="http://www.w3.org/2000/svg">
<g clip-path="url(#clip0)">
<path d="M7.25496 23.077C7.43472 23.2568 7.67072 23.3472 7.90672 23.3472C8.14272 23.3472 8.37872 23.2573 8.55897 23.077C8.91898 22.717 8.91898 22.133 8.55897 21.773L6.32008 19.5341L8.55897 17.2957C8.91898 16.9352 8.91898 16.3517 8.55897 15.9917C8.19896 15.6317 7.61497 15.6317 7.25496 15.9917L4.3643 18.8824C4.19127 19.0554 4.09418 19.29 4.09418 19.5341C4.09418 19.7788 4.19127 20.0133 4.3643 20.1864L7.25496 23.077Z" fill="#5A84C5"/>
<path d="M16.4047 19.5341L14.1658 21.773C13.8058 22.133 13.8058 22.717 14.1663 23.077C14.3461 23.2568 14.5821 23.3471 14.8181 23.3471C15.0541 23.3471 15.2901 23.2568 15.4698 23.077L18.361 20.1859C18.721 19.8259 18.721 19.2419 18.361 18.8824L15.4698 15.9912C15.1098 15.6312 14.5263 15.6312 14.1663 15.9912C13.8058 16.3517 13.8058 16.9352 14.1663 17.2952L16.4047 19.5341Z" fill="#5A84C5"/>
<path d="M9.988 23.2832C10.0986 23.3265 10.2129 23.3472 10.3249 23.3472C10.6931 23.3472 11.0406 23.1251 11.1834 22.7622L13.4545 16.9804C13.641 16.5065 13.4074 15.9715 12.9334 15.785C12.46 15.599 11.9246 15.8321 11.7385 16.3061L9.46697 22.0878C9.28096 22.5618 9.51407 23.0972 9.988 23.2832Z" fill="#5A84C5"/>
<path d="M5.5381 28.7564H11.7496C12.2586 28.7564 12.6715 28.3435 12.6715 27.834C12.6715 27.325 12.2586 26.9121 11.7496 26.9121H5.5381C5.02861 26.9121 4.61621 27.325 4.61621 27.834C4.61621 28.3435 5.02861 28.7564 5.5381 28.7564Z" fill="#5A84C5"/>
<path d="M26.0558 26.9121H15.1353C14.6263 26.9121 14.2134 27.325 14.2134 27.834C14.2134 28.3435 14.6263 28.7564 15.1353 28.7564H26.0558C26.5653 28.7564 26.9782 28.3435 26.9782 27.834C26.9782 27.325 26.5653 26.9121 26.0558 26.9121Z" fill="#5A84C5"/>
<path d="M5.5381 32.6454H8.1841C8.69311 32.6454 9.10599 32.2325 9.10599 31.723C9.10599 31.214 8.69311 30.8011 8.1841 30.8011H5.5381C5.02861 30.8011 4.61621 31.214 4.61621 31.723C4.61621 32.2325 5.02861 32.6454 5.5381 32.6454Z" fill="#5A84C5"/>
<path d="M22.6826 30.8011C22.1731 30.8011 21.7607 31.214 21.7607 31.723C21.7607 32.2325 22.1731 32.6454 22.6826 32.6454H24.2937C24.8032 32.6454 25.2161 32.2325 25.2161 31.723C25.2161 31.214 24.8032 30.8011 24.2937 30.8011H22.6826Z" fill="#5A84C5"/>
<path d="M20.2557 31.723C20.2557 31.214 19.8428 30.8011 19.3338 30.8011H11.4193C10.9098 30.8011 10.4974 31.214 10.4974 31.723C10.4974 32.2325 10.9098 32.6454 11.4193 32.6454H19.3338C19.8428 32.6454 20.2557 32.2325 20.2557 31.723Z" fill="#5A84C5"/>
<path d="M26.2956 31.723C26.2956 32.2325 26.7085 32.6454 27.2175 32.6454H30.2355C30.745 32.6454 31.1579 32.2325 31.1579 31.723C31.1579 31.214 30.745 30.8011 30.2355 30.8011H27.2175C26.7085 30.8011 26.2956 31.214 26.2956 31.723Z" fill="#5A84C5"/>
<path d="M21.2742 20.2739H24.4576C24.967 20.2739 25.3799 19.861 25.3799 19.3515C25.3799 18.8425 24.967 18.4296 24.4576 18.4296H21.2742C20.7647 18.4296 20.3518 18.8425 20.3518 19.3515C20.3518 19.861 20.7647 20.2739 21.2742 20.2739Z" fill="#5A84C5"/>
<path d="M28.0231 20.2739H47.4468C47.9563 20.2739 48.3687 19.861 48.3687 19.3515C48.3687 18.8425 47.9563 18.4296 47.4468 18.4296H28.0231C27.5136 18.4296 27.1007 18.8425 27.1007 19.3515C27.1007 19.861 27.5136 20.2739 28.0231 20.2739Z" fill="#5A84C5"/>
<path d="M44.4965 22.4863H36.6283C36.1192 22.4863 35.7064 22.8992 35.7064 23.4087C35.7064 23.9177 36.1192 24.3306 36.6283 24.3306H44.4965C45.0056 24.3306 45.4184 23.9177 45.4184 23.4087C45.4184 22.8992 45.0056 22.4863 44.4965 22.4863Z" fill="#5A84C5"/>
<path d="M33.678 22.4863H30.9733C30.4639 22.4863 30.0515 22.8992 30.0515 23.4087C30.0515 23.9177 30.4639 24.3306 30.9733 24.3306H33.678C34.1875 24.3306 34.5999 23.9177 34.5999 23.4087C34.5999 22.8992 34.1875 22.4863 33.678 22.4863Z" fill="#5A84C5"/>
<path d="M21.2742 24.3306H27.9C28.409 24.3306 28.8219 23.9177 28.8219 23.4087C28.8219 22.8992 28.409 22.4863 27.9 22.4863H21.2742C20.7647 22.4863 20.3518 22.8992 20.3518 23.4087C20.3518 23.9177 20.7647 24.3306 21.2742 24.3306Z" fill="#5A84C5"/>
<path d="M19.3454 34.6574H13.1343C12.6249 34.6574 12.212 35.0703 12.212 35.5793C12.212 36.0883 12.6249 36.5012 13.1343 36.5012H19.3454C19.8544 36.5012 20.2673 36.0883 20.2673 35.5793C20.2673 35.0703 19.8544 34.6574 19.3454 34.6574Z" fill="#5A84C5"/>
<path d="M10.31 34.6574H5.5381C5.02861 34.6574 4.61621 35.0703 4.61621 35.5793C4.61621 36.0883 5.02861 36.5012 5.5381 36.5012H10.31C10.8195 36.5012 11.2319 36.0883 11.2319 35.5793C11.2319 35.0703 10.8195 34.6574 10.31 34.6574Z" fill="#5A84C5"/>
<path d="M30.6047 34.6574H22.4907C21.9812 34.6574 21.5688 35.0703 21.5688 35.5793C21.5688 36.0883 21.9812 36.5012 22.4907 36.5012H30.6047C31.1137 36.5012 31.5266 36.0883 31.5266 35.5793C31.5266 35.0703 31.1137 34.6574 30.6047 34.6574Z" fill="#5A84C5"/>
<path d="M41.5775 29.921H37.1406C36.6316 29.921 36.2187 30.3339 36.2187 30.8429C36.2187 31.3524 36.6316 31.7653 37.1406 31.7653H41.5775C42.087 31.7653 42.4994 31.3524 42.4994 30.8429C42.4994 30.3339 42.087 29.921 41.5775 29.921Z" fill="#5A84C5"/>
<path d="M49.2766 31.7653H55.54C56.0495 31.7653 56.4624 31.3524 56.4624 30.8429C56.4624 30.3339 56.0495 29.921 55.54 29.921H49.2766C48.7671 29.921 48.3547 30.3339 48.3547 30.8429C48.3547 31.3524 48.7676 31.7653 49.2766 31.7653Z" fill="#5A84C5"/>
<path d="M46.1447 29.921H44.7094C44.1999 29.921 43.787 30.3339 43.787 30.8429C43.787 31.3524 44.1999 31.7653 44.7094 31.7653H46.1447C46.6542 31.7653 47.0666 31.3524 47.0666 30.8429C47.0666 30.3339 46.6542 29.921 46.1447 29.921Z" fill="#5A84C5"/>
<path d="M37.1406 41.8129H41.5775C42.087 41.8129 42.4994 41.4005 42.4994 40.891C42.4994 40.382 42.087 39.9691 41.5775 39.9691H37.1406C36.6316 39.9691 36.2187 40.382 36.2187 40.891C36.2187 41.4005 36.6316 41.8129 37.1406 41.8129Z" fill="#5A84C5"/>
<path d="M49.2766 41.8129H55.54C56.0495 41.8129 56.4624 41.4005 56.4624 40.891C56.4624 40.382 56.0495 39.9691 55.54 39.9691H49.2766C48.7671 39.9691 48.3547 40.382 48.3547 40.891C48.3547 41.4005 48.7676 41.8129 49.2766 41.8129Z" fill="#5A84C5"/>
<path d="M44.7094 41.8129H46.1447C46.6542 41.8129 47.0671 41.4005 47.0671 40.891C47.0671 40.382 46.6542 39.9691 46.1447 39.9691H44.7094C44.1999 39.9691 43.7875 40.382 43.7875 40.891C43.7875 41.4005 44.1999 41.8129 44.7094 41.8129Z" fill="#5A84C5"/>
<path d="M41.5775 50.0172H37.1406C36.6316 50.0172 36.2187 50.4301 36.2187 50.9391C36.2187 51.4481 36.6316 51.861 37.1406 51.861H41.5775C42.087 51.861 42.4994 51.4481 42.4994 50.9391C42.4994 50.4301 42.087 50.0172 41.5775 50.0172Z" fill="#5A84C5"/>
<path d="M55.54 50.0172H49.2766C48.7671 50.0172 48.3547 50.4301 48.3547 50.9391C48.3547 51.4481 48.7671 51.861 49.2766 51.861H55.54C56.0495 51.861 56.4624 51.4481 56.4624 50.9391C56.4624 50.4301 56.0495 50.0172 55.54 50.0172Z" fill="#5A84C5"/>
<path d="M46.1447 50.0172H44.7094C44.1999 50.0172 43.787 50.4301 43.787 50.9391C43.787 51.4481 44.1999 51.861 44.7094 51.861H46.1447C46.6542 51.861 47.0666 51.4481 47.0666 50.9391C47.0666 50.4301 46.6542 50.0172 46.1447 50.0172Z" fill="#5A84C5"/>
<path d="M58.9426 0.122925H4.05816C1.82072 0.122925 0 1.94316 0 4.18109V48.7939C0 51.0314 1.82072 52.8516 4.05816 52.8516H7.528C8.03701 52.8516 8.44989 52.4392 8.44989 51.9297C8.44989 51.4207 8.03701 51.0078 7.528 51.0078H4.05816C2.8373 51.0078 1.84427 50.0148 1.84427 48.7939V45.2962H35.4357V46.8853H34.7046C33.7044 46.8853 32.8911 47.6985 32.8911 48.6988V51.0078H13.1339C12.6249 51.0078 12.212 51.4207 12.212 51.9297C12.212 52.4392 12.6249 52.8516 13.1339 52.8516H21.999V56.1585H19.2151C17.3578 56.1585 15.8472 57.6697 15.8472 59.5265V61.5183C15.8472 62.3657 16.5364 63.0549 17.3838 63.0549H45.5463C46.3937 63.0549 47.0829 62.3657 47.0829 61.5183V59.5265C47.0829 57.6697 45.5722 56.1585 43.715 56.1585H40.931V54.9929H57.9765C58.9762 54.9929 59.7895 54.1797 59.7895 53.1794V52.7454C61.5866 52.3282 62.9301 50.7156 62.9301 48.7939L62.9998 4.1806C63.0002 1.94316 61.18 0.122925 58.9426 0.122925ZM34.7354 43.1011V38.6815H57.9457V43.1011H34.7354ZM37.2795 36.8372V34.8973H55.4011V36.8372H37.2795ZM55.4011 44.9449V46.8853H37.2795V44.9449H55.4011ZM23.8428 52.8516H32.8911V53.1799C32.8911 54.1797 33.7044 54.9929 34.7046 54.9929H39.0872V56.1585H23.8428V52.8516ZM43.7155 58.0028C44.5556 58.0028 45.2391 58.6863 45.2391 59.5265V61.2111H17.6909V59.5265C17.6909 58.6863 18.3749 58.0028 19.2151 58.0028H43.7155ZM57.9457 53.1487H34.7354V48.7295H57.9457V53.1487ZM61.0863 48.7939C61.0863 49.687 60.5537 50.4565 59.79 50.806V48.6983C59.79 47.6985 58.9762 46.8853 57.9765 46.8853H57.2454V45.2962H61.0863V48.7939ZM61.0863 43.4524H59.7597C59.7784 43.3481 59.79 38.6507 59.79 38.6507C59.79 37.6505 58.9762 36.8372 57.9765 36.8372H57.2454V34.8973H57.9765C58.9762 34.8973 59.79 34.0835 59.79 33.0838V28.6026C59.79 27.6029 58.9762 26.7891 57.9765 26.7891H52.7686C52.2591 26.7891 51.8467 27.202 51.8467 27.7115C51.8467 28.2205 52.2591 28.6334 52.7686 28.6334H57.9457V33.053H34.7354V28.6334H47.0315C47.541 28.6334 47.9534 28.2205 47.9534 27.7115C47.9534 27.202 47.541 26.7891 47.0315 26.7891H34.7046C33.7044 26.7891 32.8911 27.6029 32.8911 28.6026V33.0838C32.8911 34.0835 33.7044 34.8973 34.7046 34.8973H35.4357V36.8372H34.7046C33.7044 36.8372 32.8911 37.6509 32.8911 38.6507C32.8911 38.6507 32.9027 43.3481 32.9214 43.4524H1.84427V12.6651H61.0863V43.4524ZM61.0863 10.8208H1.91204V4.1806C1.91204 2.96022 2.90507 1.96719 4.12593 1.96719H58.8724C60.0933 1.96719 61.0863 2.96022 61.0863 4.18109V10.8208Z" fill="#5A84C5"/>
<path d="M6.79978 3.66199C5.30783 3.66199 4.09418 4.87564 4.09418 6.36759C4.09418 7.85954 5.30783 9.07367 6.79978 9.07367C8.29172 9.07367 9.50585 7.85954 9.50585 6.36759C9.50585 4.87564 8.29172 3.66199 6.79978 3.66199ZM6.79978 7.2294C6.32489 7.2294 5.93796 6.84296 5.93796 6.36759C5.93796 5.8927 6.32489 5.50578 6.79978 5.50578C7.27514 5.50578 7.66159 5.8927 7.66159 6.36759C7.66159 6.84296 7.27514 7.2294 6.79978 7.2294Z" fill="#5A84C5"/>
<path d="M13.689 3.66199C12.197 3.66199 10.9829 4.87564 10.9829 6.36759C10.9829 7.85954 12.197 9.07367 13.689 9.07367C15.1809 9.07367 16.3946 7.85954 16.3946 6.36759C16.3946 4.87564 15.1805 3.66199 13.689 3.66199ZM13.689 7.2294C13.2136 7.2294 12.8272 6.84296 12.8272 6.36759C12.8272 5.8927 13.2136 5.50578 13.689 5.50578C14.1639 5.50578 14.5508 5.8927 14.5508 6.36759C14.5508 6.84296 14.1639 7.2294 13.689 7.2294Z" fill="#5A84C5"/>
<path d="M20.5777 3.66199C19.0858 3.66199 17.8721 4.87564 17.8721 6.36759C17.8721 7.85954 19.0858 9.07367 20.5777 9.07367C22.0697 9.07367 23.2838 7.85954 23.2838 6.36759C23.2838 4.87564 22.0697 3.66199 20.5777 3.66199ZM20.5777 7.2294C20.1028 7.2294 19.7159 6.84296 19.7159 6.36759C19.7159 5.8927 20.1028 5.50578 20.5777 5.50578C21.0531 5.50578 21.4395 5.8927 21.4395 6.36759C21.4395 6.84296 21.0531 7.2294 20.5777 7.2294Z" fill="#5A84C5"/>
</g>
<defs>
<clipPath id="clip0">
<rect width="63" height="63" fill="white"/>
</clipPath>
</defs>
</svg>
