<svg width="50" height="50" viewBox="0 0 50 50" fill="none" xmlns="http://www.w3.org/2000/svg">
<path d="M46.4858 6.66669H3.51417C1.57667 6.66669 0 8.24335 0 10.1809V39.8192C0 41.7567 1.57667 43.3334 3.51417 43.3334H46.4858C48.4233 43.3334 50 41.7567 50 39.8192V10.1809C50 8.24335 48.4233 6.66669 46.4858 6.66669ZM48.3333 39.8192C48.3333 40.8384 47.505 41.6667 46.4858 41.6667H3.51417C2.495 41.6667 1.66667 40.8384 1.66667 39.8192V10.1809C1.66667 9.16169 2.495 8.33335 3.51417 8.33335H46.4858C47.505 8.33335 48.3333 9.16169 48.3333 10.1809V39.8192Z" fill="#5A84C5"/>
<path d="M18.8648 30.205L15.8332 28.6567V28.3342C17.1898 27.5934 18.144 26.3734 18.6765 24.6975C19.484 24.2692 19.9998 23.435 19.9998 22.5V21.6667C19.9998 20.895 19.6407 20.1792 19.0407 19.7092C18.5207 16.5592 16.3223 14.9625 12.4998 14.9625C12.319 14.9625 12.1423 14.9692 11.9698 14.9825C11.2498 15.0417 10.1957 14.9792 9.28317 14.3659C8.94234 14.1359 8.68484 13.9125 8.52067 13.705C8.24067 13.3475 7.76984 13.2225 7.35234 13.3942C6.934 13.5659 6.68817 13.9842 6.74067 14.4334C6.77567 14.745 6.82817 15.1075 6.90734 15.505C7.06817 16.3175 7.06817 16.3175 6.84234 16.8034C6.75734 16.9875 6.65234 17.2117 6.529 17.5142C6.25317 18.19 6.05734 18.93 5.94484 19.72C5.35317 20.1909 4.99984 20.9025 4.99984 21.6667V22.5C4.99984 23.435 5.51567 24.2692 6.32317 24.6975C6.85567 26.3742 7.80984 27.5942 9.1665 28.3342V28.6475L6.02567 30.1959C4.879 30.8209 4.1665 32.0209 4.1665 33.3275V34.4317C4.1665 35.1009 4.1665 36.6667 12.4998 36.6667C20.8332 36.6667 20.8332 35.1009 20.8332 34.4317V33.3942C20.8332 32.035 20.079 30.8142 18.8648 30.205ZM19.1665 34.2434C18.6465 34.56 16.5315 35 12.4998 35C8.46817 35 6.35317 34.56 5.83317 34.2434V33.3275C5.83317 32.6317 6.21234 31.9917 6.79317 31.6759L10.0073 30.0917C10.509 29.8467 10.8323 29.3275 10.8323 28.7684V27.2659L10.329 27.0492C9.06484 26.5042 8.24317 25.465 7.8165 23.8709L7.69734 23.4267L7.259 23.29C6.91067 23.1809 6.6665 22.8567 6.6665 22.5V21.6667C6.6665 21.365 6.839 21.085 7.11734 20.9367L7.50817 20.7284L7.554 20.2875C7.6365 19.5059 7.81067 18.785 8.07234 18.1459C8.18317 17.875 8.27734 17.6725 8.354 17.5067C8.6365 16.9 8.739 16.5867 8.66817 15.9442C9.64817 16.5042 10.8257 16.7425 12.1032 16.645C12.2323 16.6342 12.3648 16.6292 12.5007 16.6292C15.6207 16.6292 17.144 17.7592 17.4415 20.2942L17.4932 20.7292L17.8807 20.9342C18.159 21.0825 18.3332 21.3634 18.3332 21.6667V22.5C18.3332 22.8567 18.089 23.1809 17.7398 23.2892L17.3015 23.4259L17.1823 23.87C16.7557 25.4642 15.934 26.5034 14.6698 27.0484L14.1665 27.2659V28.775C14.1665 29.3325 14.4748 29.835 14.9698 30.0875L18.1157 31.695C18.764 32.0184 19.1665 32.67 19.1665 33.3942V34.2434Z" fill="#5A84C5"/>
<path d="M24.9998 19.1667H33.3332C33.794 19.1667 34.1665 18.7942 34.1665 18.3333C34.1665 17.8725 33.794 17.5 33.3332 17.5H24.9998C24.539 17.5 24.1665 17.8725 24.1665 18.3333C24.1665 18.7942 24.539 19.1667 24.9998 19.1667Z" fill="#5A84C5"/>
<path d="M36.6668 19.1667H37.5002C37.961 19.1667 38.3335 18.7942 38.3335 18.3333C38.3335 17.8725 37.961 17.5 37.5002 17.5H36.6668C36.206 17.5 35.8335 17.8725 35.8335 18.3333C35.8335 18.7942 36.206 19.1667 36.6668 19.1667Z" fill="#5A84C5"/>
<path d="M25.8332 31.6667H24.9998C24.539 31.6667 24.1665 32.0392 24.1665 32.5C24.1665 32.9609 24.539 33.3334 24.9998 33.3334H25.8332C26.294 33.3334 26.6665 32.9609 26.6665 32.5C26.6665 32.0392 26.294 31.6667 25.8332 31.6667Z" fill="#5A84C5"/>
<path d="M30.8335 31.6667H29.1668C28.706 31.6667 28.3335 32.0392 28.3335 32.5C28.3335 32.9609 28.706 33.3334 29.1668 33.3334H30.8335C31.2943 33.3334 31.6668 32.9609 31.6668 32.5C31.6668 32.0392 31.2943 31.6667 30.8335 31.6667Z" fill="#5A84C5"/>
<path d="M35.0002 31.6667H34.1668C33.706 31.6667 33.3335 32.0392 33.3335 32.5C33.3335 32.9609 33.706 33.3334 34.1668 33.3334H35.0002C35.461 33.3334 35.8335 32.9609 35.8335 32.5C35.8335 32.0392 35.461 31.6667 35.0002 31.6667Z" fill="#5A84C5"/>
<path d="M40 31.6667H38.3333C37.8725 31.6667 37.5 32.0392 37.5 32.5C37.5 32.9609 37.8725 33.3334 38.3333 33.3334H40C40.4608 33.3334 40.8333 32.9609 40.8333 32.5C40.8333 32.0392 40.4608 31.6667 40 31.6667Z" fill="#5A84C5"/>
<path d="M42.7417 31.9084C42.5908 32.0659 42.5 32.2834 42.5 32.5C42.5 32.7167 42.5908 32.9334 42.7417 33.0917C42.8992 33.2417 43.1167 33.3334 43.3333 33.3334C43.55 33.3334 43.7667 33.2417 43.925 33.0917C44.075 32.9334 44.1667 32.7167 44.1667 32.5C44.1667 32.2834 44.075 32.0659 43.925 31.9084C43.6083 31.6 43.05 31.6 42.7417 31.9084Z" fill="#5A84C5"/>
<path d="M43.3332 22.5H24.9998C24.539 22.5 24.1665 22.8725 24.1665 23.3333C24.1665 23.7942 24.539 24.1667 24.9998 24.1667H43.3332C43.794 24.1667 44.1665 23.7942 44.1665 23.3333C44.1665 22.8725 43.794 22.5 43.3332 22.5Z" fill="#5A84C5"/>
<path d="M43.3332 27.5H24.9998C24.539 27.5 24.1665 27.8725 24.1665 28.3333C24.1665 28.7942 24.539 29.1667 24.9998 29.1667H43.3332C43.794 29.1667 44.1665 28.7942 44.1665 28.3333C44.1665 27.8725 43.794 27.5 43.3332 27.5Z" fill="#5A84C5"/>
</svg>
