<svg width="51" height="24" viewBox="0 0 51 24" fill="none" xmlns="http://www.w3.org/2000/svg">
<path d="M0.47125 0.48H3.68725V13.968C3.68725 14.432 3.79925 14.792 4.02325 15.048C4.24725 15.304 4.56725 15.432 4.98325 15.432C5.17525 15.432 5.38325 15.4 5.60725 15.336C5.84725 15.272 6.07125 15.192 6.27925 15.096L6.71125 17.544C6.27925 17.752 5.77525 17.912 5.19925 18.024C4.62325 18.136 4.10325 18.192 3.63925 18.192C2.63125 18.192 1.84725 17.928 1.28725 17.4C0.74325 16.856 0.47125 16.088 0.47125 15.096V0.48ZM13.9204 18.24C12.8964 18.24 11.9764 18.064 11.1604 17.712C10.3444 17.36 9.64844 16.888 9.07244 16.296C8.51244 15.688 8.08044 14.992 7.77644 14.208C7.47244 13.424 7.32044 12.6 7.32044 11.736C7.32044 10.856 7.47244 10.024 7.77644 9.24C8.08044 8.456 8.51244 7.768 9.07244 7.176C9.64844 6.568 10.3444 6.088 11.1604 5.736C11.9764 5.384 12.8964 5.208 13.9204 5.208C14.9444 5.208 15.8564 5.384 16.6564 5.736C17.4724 6.088 18.1604 6.568 18.7204 7.176C19.2964 7.768 19.7364 8.456 20.0404 9.24C20.3444 10.024 20.4964 10.856 20.4964 11.736C20.4964 12.6 20.3444 13.424 20.0404 14.208C19.7364 14.992 19.3044 15.688 18.7444 16.296C18.1844 16.888 17.4964 17.36 16.6804 17.712C15.8644 18.064 14.9444 18.24 13.9204 18.24ZM10.6324 11.736C10.6324 12.296 10.7124 12.808 10.8724 13.272C11.0484 13.72 11.2804 14.112 11.5684 14.448C11.8724 14.784 12.2244 15.048 12.6244 15.24C13.0244 15.416 13.4564 15.504 13.9204 15.504C14.3844 15.504 14.8164 15.416 15.2164 15.24C15.6164 15.048 15.9604 14.784 16.2484 14.448C16.5524 14.112 16.7844 13.712 16.9444 13.248C17.1204 12.784 17.2084 12.272 17.2084 11.712C17.2084 11.168 17.1204 10.664 16.9444 10.2C16.7844 9.736 16.5524 9.336 16.2484 9C15.9604 8.664 15.6164 8.408 15.2164 8.232C14.8164 8.04 14.3844 7.944 13.9204 7.944C13.4564 7.944 13.0244 8.04 12.6244 8.232C12.2244 8.424 11.8724 8.688 11.5684 9.024C11.2804 9.36 11.0484 9.76 10.8724 10.224C10.7124 10.688 10.6324 11.192 10.6324 11.736ZM27.5871 18.072C26.7391 18.072 25.9711 17.904 25.2831 17.568C24.5951 17.232 23.9951 16.776 23.4831 16.2C22.9871 15.608 22.6031 14.928 22.3311 14.16C22.0591 13.392 21.9231 12.576 21.9231 11.712C21.9231 10.8 22.0671 9.952 22.3551 9.168C22.6431 8.384 23.0431 7.696 23.5551 7.104C24.0671 6.512 24.6831 6.048 25.4031 5.712C26.1231 5.376 26.9151 5.208 27.7791 5.208C28.7551 5.208 29.6111 5.432 30.3471 5.88C31.0831 6.312 31.6911 6.896 32.1711 7.632V5.424H34.9791V17.4C34.9791 18.328 34.8031 19.16 34.4511 19.896C34.0991 20.632 33.6111 21.256 32.9871 21.768C32.3791 22.28 31.6431 22.672 30.7791 22.944C29.9311 23.216 29.0031 23.352 27.9951 23.352C26.6191 23.352 25.4591 23.12 24.5151 22.656C23.5871 22.208 22.7871 21.568 22.1151 20.736L23.8671 19.032C24.3471 19.624 24.9471 20.088 25.6671 20.424C26.4031 20.76 27.1791 20.928 27.9951 20.928C28.4911 20.928 28.9631 20.856 29.4111 20.712C29.8751 20.584 30.2831 20.376 30.6351 20.088C30.9871 19.8 31.2591 19.432 31.4511 18.984C31.6591 18.536 31.7631 18.008 31.7631 17.4V15.816C31.3471 16.536 30.7631 17.096 30.0111 17.496C29.2591 17.88 28.4511 18.072 27.5871 18.072ZM28.6671 15.504C29.0191 15.504 29.3551 15.448 29.6751 15.336C29.9951 15.224 30.2911 15.072 30.5631 14.88C30.8351 14.688 31.0751 14.464 31.2831 14.208C31.4911 13.952 31.6511 13.68 31.7631 13.392V10.392C31.4751 9.656 31.0191 9.064 30.3951 8.616C29.7871 8.168 29.1471 7.944 28.4751 7.944C27.9791 7.944 27.5311 8.056 27.1311 8.28C26.7311 8.488 26.3871 8.776 26.0991 9.144C25.8111 9.496 25.5871 9.904 25.4271 10.368C25.2831 10.832 25.2111 11.312 25.2111 11.808C25.2111 12.32 25.2991 12.8 25.4751 13.248C25.6511 13.696 25.8911 14.088 26.1951 14.424C26.5151 14.76 26.8831 15.024 27.2991 15.216C27.7151 15.408 28.1711 15.504 28.6671 15.504ZM43.6861 18.24C42.6621 18.24 41.7421 18.064 40.9261 17.712C40.1101 17.36 39.4141 16.888 38.8381 16.296C38.2781 15.688 37.8461 14.992 37.5421 14.208C37.2381 13.424 37.0861 12.6 37.0861 11.736C37.0861 10.856 37.2381 10.024 37.5421 9.24C37.8461 8.456 38.2781 7.768 38.8381 7.176C39.4141 6.568 40.1101 6.088 40.9261 5.736C41.7421 5.384 42.6621 5.208 43.6861 5.208C44.7101 5.208 45.6221 5.384 46.4221 5.736C47.2381 6.088 47.9261 6.568 48.4861 7.176C49.0621 7.768 49.5021 8.456 49.8061 9.24C50.1101 10.024 50.2621 10.856 50.2621 11.736C50.2621 12.6 50.1101 13.424 49.8061 14.208C49.5021 14.992 49.0701 15.688 48.5101 16.296C47.9501 16.888 47.2621 17.36 46.4461 17.712C45.6301 18.064 44.7101 18.24 43.6861 18.24ZM40.3981 11.736C40.3981 12.296 40.4781 12.808 40.6381 13.272C40.8141 13.72 41.0461 14.112 41.3341 14.448C41.6381 14.784 41.9901 15.048 42.3901 15.24C42.7901 15.416 43.2221 15.504 43.6861 15.504C44.1501 15.504 44.5821 15.416 44.9821 15.24C45.3821 15.048 45.7261 14.784 46.0141 14.448C46.3181 14.112 46.5501 13.712 46.7101 13.248C46.8861 12.784 46.9741 12.272 46.9741 11.712C46.9741 11.168 46.8861 10.664 46.7101 10.2C46.5501 9.736 46.3181 9.336 46.0141 9C45.7261 8.664 45.3821 8.408 44.9821 8.232C44.5821 8.04 44.1501 7.944 43.6861 7.944C43.2221 7.944 42.7901 8.04 42.3901 8.232C41.9901 8.424 41.6381 8.688 41.3341 9.024C41.0461 9.36 40.8141 9.76 40.6381 10.224C40.4781 10.688 40.3981 11.192 40.3981 11.736Z" fill="#5A84C5"/>
</svg>
