<svg width="50" height="50" viewBox="0 0 50 50" fill="none" xmlns="http://www.w3.org/2000/svg">
<path d="M46.919 3.91418H3.08096C1.38203 3.91418 0 5.29622 0 6.99504V36.7424C0 38.4412 1.38203 39.8233 3.08096 39.8233H17.9077L17.308 44.621H14.8232C14.4187 44.621 14.0908 44.949 14.0908 45.3534C14.0908 45.7579 14.4187 46.0859 14.8232 46.0859H35.1768C35.5813 46.0859 35.9092 45.7579 35.9092 45.3534C35.9092 44.949 35.5813 44.621 35.1768 44.621H32.6921L32.0923 39.8233H46.919C48.6179 39.8233 50 38.4412 50 36.7424V6.99504C50 5.29622 48.618 3.91418 46.919 3.91418ZM18.7843 44.621L19.3841 39.8233H22.0797L22.3441 40.8809C22.6494 42.1019 23.7416 42.9545 25.0001 42.9545C26.2586 42.9545 27.3508 42.1019 27.6561 40.8809L27.9205 39.8233H30.6161L31.2157 44.621H18.7843ZM23.5896 39.8233H26.4104L26.2348 40.5256C26.0929 41.0933 25.5852 41.4897 24.9999 41.4897C24.4146 41.4897 23.907 41.0932 23.765 40.5256L23.5896 39.8233ZM48.5352 36.7424C48.5352 37.6335 47.8102 38.3584 46.919 38.3584H3.08096C2.18984 38.3584 1.46484 37.6335 1.46484 36.7424V6.99504C1.46484 6.10393 2.18984 5.37903 3.08096 5.37903H46.919C47.8102 5.37903 48.5352 6.10393 48.5352 6.99504V36.7424Z" fill="white"/>
<path d="M41.4394 7.04553H3.86377C3.45918 7.04553 3.13135 7.37336 3.13135 7.77795V35.9596C3.13135 36.3642 3.45918 36.692 3.86377 36.692H5.42949C5.83408 36.692 6.16191 36.3642 6.16191 35.9596C6.16201 35.5551 5.83408 35.2272 5.42959 35.2272H4.59629V8.51038H41.4394C41.8439 8.51038 42.1718 8.18245 42.1718 7.77795C42.1718 7.37336 41.8439 7.04553 41.4394 7.04553Z" fill="white"/>
<path d="M46.1361 7.04553H44.5704C44.1658 7.04553 43.838 7.37336 43.838 7.77795C43.838 8.18245 44.1658 8.51038 44.5704 8.51038H45.4037V35.2272H8.56055C8.15596 35.2272 7.82812 35.5551 7.82812 35.9596C7.82812 36.3642 8.15596 36.692 8.56055 36.692H46.136C46.5406 36.692 46.8685 36.3642 46.8685 35.9596V7.77795C46.8686 7.37336 46.5406 7.04553 46.1361 7.04553Z" fill="white"/>
<path d="M34.9706 15.1547C34.839 14.9865 34.6404 14.8841 34.4272 14.8744L17.2051 14.0915C17.1916 14.0909 17.1784 14.0906 17.1649 14.0908C17.0629 13.7562 16.8475 13.4659 16.5559 13.2714L14.4468 11.8654C14.1103 11.641 13.6555 11.732 13.4312 12.0686C13.2068 12.4052 13.2978 12.8599 13.6343 13.0842L15.7433 14.4901C15.7532 14.4967 15.7606 14.5068 15.7639 14.5183L18.4503 23.9207C18.5341 24.2139 18.672 24.4774 18.849 24.7049L17.8661 26.6707C17.6295 27.1439 17.6543 27.6949 17.9324 28.1449C18.0333 28.3081 18.1612 28.4471 18.3082 28.5584C18.1158 28.8943 18.0052 29.2827 18.0052 29.6968C18.0052 30.964 19.0361 31.9949 20.3032 31.9949C21.5703 31.9949 22.6013 30.9639 22.6013 29.6968C22.6013 29.403 22.5452 29.1221 22.4443 28.8636H29.1217C29.0207 29.1221 28.9647 29.403 28.9647 29.6968C28.9647 30.964 29.9956 31.9949 31.2627 31.9949C32.5298 31.9949 33.5608 30.9639 33.5608 29.6968C33.5608 29.3292 33.4736 28.9819 33.3195 28.6735C33.4673 28.5395 33.5608 28.3465 33.5608 28.1312C33.5608 27.7267 33.2329 27.3988 32.8283 27.3988H19.2211C19.2107 27.3988 19.193 27.3988 19.1782 27.3748C19.1635 27.351 19.1714 27.3353 19.1761 27.3258L20.0816 25.515C20.2658 25.5623 20.4578 25.5879 20.6543 25.5879C20.7448 25.5879 20.8362 25.5825 20.9282 25.5718L31.2198 24.3611C32.549 24.2046 33.6185 23.2179 33.881 21.9054L35.112 15.7497C35.1539 15.5403 35.1023 15.323 34.9706 15.1547ZM31.2625 28.8638C31.722 28.8638 32.0957 29.2376 32.0957 29.697C32.0957 30.1565 31.722 30.5302 31.2625 30.5302C30.803 30.5302 30.4293 30.1565 30.4293 29.697C30.4293 29.2375 30.803 28.8638 31.2625 28.8638ZM20.303 28.8638C20.7625 28.8638 21.1362 29.2375 21.1362 29.697C21.1362 30.1565 20.7625 30.5302 20.303 30.5302C19.8436 30.5302 19.4698 30.1565 19.4698 29.697C19.4698 29.2375 19.8436 28.8638 20.303 28.8638ZM18.5069 18.7878L17.5891 15.5754L20.5173 15.7085L21.025 18.7878H18.5069ZM20.7571 24.117C20.3487 24.1651 19.9713 23.9132 19.8586 23.5184L18.9255 20.2527H21.2665L21.8818 23.9847L20.7571 24.117ZM25.0504 23.6119L23.3383 23.8134L22.7513 20.2528H25.0504V23.6119ZM25.0504 18.7878H22.5097L22.0132 15.7766L25.0504 15.9147V18.7878ZM28.7596 23.1755L26.5152 23.4396V20.2527H29.0241L28.7596 23.1755ZM29.1568 18.7878H26.5152V15.9812L29.3989 16.1122L29.1568 18.7878ZM32.4445 21.6183C32.3068 22.3066 31.7458 22.8242 31.0486 22.9063L30.2462 23.0007L30.4949 20.2528H32.7175L32.4445 21.6183ZM33.0106 18.7878H30.6277L30.8638 16.1788L33.5083 16.299L33.0106 18.7878Z" fill="white"/>
</svg>
