<svg xmlns="http://www.w3.org/2000/svg" fill="none" viewBox="0 0 45 45">
  <defs/>
  <g fill="#fff" clip-path="url(#clip0)" opacity=".1">
    <path d="M.2 31c.3-.9 1.1-1.5 2.1-1.5h1V5.3c0-.4.3-.8.8-.8h10.6V.8c0-.5.3-.8.7-.8h28.8c.4 0 .7.3.7.8V40c0 .4-.3.8-.7.8h-25l.3 1.1a2.3 2.3 0 01-3.4 2.6l-4-3a.8.8 0 00-1 0l-3.9 3c-.8.5-1.9.5-2.7 0a2.2 2.2 0 01-.8-2.6l1.5-4.7c.1-.3 0-.6-.2-.8l-4-2.9a2.2 2.2 0 01-.8-2.5zM4.8 6v23.5H7.5L8 29l1.5-4.7a2.3 2.3 0 014.3 0l.9 2.7v-7.3h-6a.8.8 0 010-1.5h6v-3h-6a.8.8 0 010-1.6h6v-3h-6a.8.8 0 010-1.5h6V6H4.8zm38.6 33.3V1.5H16.2v28h4.7a2.3 2.3 0 011.4 4.1l-4 2.9c-.3.2-.4.5-.3.8l.7 2h24.7zm-41.5-7l4 3c.7.6 1 1.6.8 2.5l-1.5 4.7a.8.8 0 001.1.8l4-2.9c.8-.5 1.9-.5 2.7 0l4 3a.8.8 0 001.1-1l-1.5-4.6c-.3-1 0-2 .8-2.5l4-3a.8.8 0 00-.5-1.3H16c-.3 0-.6 0-.9-.2-.6-.3-1-.8-1.2-1.4l-1.6-4.6a.8.8 0 00-1.4 0l-1.5 4.7C9 30.4 8.2 31 7.2 31H2.3a.8.8 0 00-.4 1.4z"/>
    <path d="M38.1 7.6H21.5a.8.8 0 010-1.5H38a.8.8 0 010 1.5zM38.1 13.6H21.5a.8.8 0 010-1.5H38a.8.8 0 010 1.5zM38.1 19.7H21.5a.8.8 0 010-1.5H38a.8.8 0 010 1.5zM20.7 25c0-.5.3-.8.8-.8H38a.8.8 0 010 1.5H21.5a.8.8 0 01-.8-.7z"/>
  </g>
  <defs>
    <clipPath id="clip0">
      <path fill="#fff" d="M0 0h45v45H0z" transform="matrix(-1 0 0 1 45 0)"/>
    </clipPath>
  </defs>
</svg>