<svg width="29" height="22" viewBox="0 0 29 22" fill="none" xmlns="http://www.w3.org/2000/svg">
<g opacity="0.1">
<g clip-path="url(#clip0)">
<path d="M27.035 4.39998H20.8691V2.93331C20.8675 1.92122 19.8068 1.10123 18.4976 1.09998H9.96026C8.65108 1.10123 7.59039 1.92122 7.58877 2.93331V4.39998H1.42289C0.637106 4.39998 0 4.8925 0 5.49998V13.6619C0.00301068 14.127 0.382125 14.5408 0.948596 14.6971V19.8C0.948596 20.4074 1.5857 20.9 2.37149 20.9H26.0864C26.8722 20.9 27.5093 20.4074 27.5093 19.8V14.6974C28.0758 14.541 28.4551 14.127 28.4579 13.6619V5.49998C28.4579 4.8925 27.8208 4.39998 27.035 4.39998ZM8.53737 2.93331C8.53737 2.32584 9.17447 1.83331 9.96026 1.83331H18.4976C19.2834 1.83331 19.9205 2.32584 19.9205 2.93331V4.39998H18.9719V2.93331C18.9719 2.73082 18.7596 2.56664 18.4976 2.56664H9.96026C9.69833 2.56664 9.48596 2.73082 9.48596 2.93331V4.39998H8.53737V2.93331ZM18.0233 4.39998H10.4346V3.29998H18.0233V4.39998ZM26.5607 19.8C26.5607 20.0025 26.3483 20.1666 26.0864 20.1666H2.37149C2.10956 20.1666 1.89719 20.0025 1.89719 19.8V14.8231L12.3317 15.9357V16.8666C12.3317 17.4741 12.9689 17.9666 13.7546 17.9666H14.7032C15.489 17.9666 16.1261 17.4741 16.1261 16.8666V15.9357L26.5607 14.8231V19.8ZM15.1775 16.8666C15.1775 17.0691 14.9652 17.2333 14.7032 17.2333H13.7546C13.4927 17.2333 13.2803 17.0691 13.2803 16.8666V14.6666C13.2803 14.4642 13.4927 14.3 13.7546 14.3H14.7032C14.9652 14.3 15.1775 14.4642 15.1775 14.6666V16.8666ZM27.5093 13.6619C27.5095 13.8447 27.3356 13.9997 27.1015 14.0253L26.9699 14.0393L16.1261 15.1953V14.6666C16.1261 14.0592 15.489 13.5666 14.7032 13.5666H13.7546C12.9689 13.5666 12.3317 14.0592 12.3317 14.6666V15.1953L1.35689 14.0253C1.12275 13.9999 0.948365 13.8449 0.948596 13.6619V5.49998C0.948596 5.29748 1.16096 5.13331 1.42289 5.13331H27.035C27.2969 5.13331 27.5093 5.29748 27.5093 5.49998V13.6619Z" fill="#5A84C5"/>
</g>
</g>
<defs>
<clipPath id="clip0">
<rect width="28.4579" height="22" fill="white"/>
</clipPath>
</defs>
</svg>
