<svg xmlns="http://www.w3.org/2000/svg" fill="none" viewBox="0 0 63 48">
  <defs/>
  <path fill="#5A84C5" d="M60.77 29.88a10.32 10.32 0 10-20.59-1.43 10.32 10.32 0 0020.6 1.43zm-.98-.07a9.33 9.33 0 01-4.48 7.33l-1.14-1.3a1.97 1.97 0 00-2.49-2.86l-2.99-3.44a1.9 1.9 0 00.14-1.98l2.38-2.07a1.96 1.96 0 101.73-3.47l.13-1.82a9.35 9.35 0 016.72 9.61zm-7.3 5.9a.98.98 0 11.13-1.96.98.98 0 01-.13 1.96zM47 29.4a.98.98 0 11.14-1.96.98.98 0 01-.14 1.97zm5.24-4.56a.98.98 0 11.14-1.96.98.98 0 01-.14 1.96zm-10.23 8.27A9.33 9.33 0 0152.1 19.97l-.14 1.98a1.94 1.94 0 00-1.4 2.8l-2.38 2.07c-.28-.2-.62-.32-.97-.35a1.97 1.97 0 10.74 3.72l2.99 3.43c-.2.29-.32.62-.35.97a1.97 1.97 0 002.84 1.89l.99 1.14a9.33 9.33 0 01-12.4-4.5z"/>
  <path fill="#5A84C5" d="M56.98 41.93c-.06.9.5 1.71 1.34 2l-.21 3 .98.07.2-3a1.97 1.97 0 00-.21-3.9c-.35-.02-.7.06-1.01.21l-.8-.92a12.29 12.29 0 10-17.54-4.29l-6.55 5.7a2.58 2.58 0 003.39 3.88l6.54-5.7a12.25 12.25 0 0013.3.93l.92 1.05c-.2.29-.32.62-.35.97zm2.94.2a.98.98 0 11-1.96-.13.98.98 0 011.96.13zm-24 1.81a1.6 1.6 0 11-2.1-2.4l4.23-3.68 2.1 2.4-4.23 3.68zm4.96-4.32l-2.09-2.4 1.45-1.26.15.21a12.57 12.57 0 00.42.57l.14.17c.17.21.35.42.54.62l.15.16a12.1 12.1 0 00.5.5l.2.17-1.46 1.26zm2.41-1.74l-.6-.52-.16-.17a11.1 11.1 0 01-1.1-1.27l-.14-.18a11.32 11.32 0 112 2.14z"/>
  <path fill="#5A84C5" d="M48.6 18.35a.38.38 0 00-.42.08l-4.17 4.17a.38.38 0 00.27.65h4.17c.21 0 .38-.17.38-.38V18.7c0-.15-.1-.3-.23-.35zm-3.4 4.14l2.87-2.87v2.87H45.2z"/>
  <path fill="#5A84C5" d="M51.36 12.23a.38.38 0 00-.42.08l-1.14 1.15V5.69a.38.38 0 00-.39-.39h-2.93l1.07-1.06 1.02-1.03a1.16 1.16 0 000-1.64L47.4.38a1.16 1.16 0 00-1.65 0L40.82 5.3H28.97V1.53a.38.38 0 00-.38-.38 3 3 0 00-3 3v16.2l.01.09a2.87 2.87 0 002.88 2.67h11.66l-2.2 2.2a.38.38 0 00.28.65H51.2c.21 0 .38-.17.38-.38v-13c0-.15-.1-.29-.23-.35zM46.28.93a.4.4 0 01.57 0l1.18 1.18a.4.4 0 010 .56l-.75.76-1.76-1.75.76-.76zm-1.3 1.29l1.76 1.75-.7.7-1.75-1.75.7-.7zm5.85 14.65h-.7a.38.38 0 100 .77h.7v1.15h-.7a.38.38 0 000 .76h.7v1.15h-.7a.38.38 0 100 .76h.7v1.15h-.7a.38.38 0 100 .77h.7v1.82h-11.7L43 21.34a.38.38 0 10-.54-.54l-1.54 1.55H28.48c-1.16 0-2.09-.9-2.12-2.06l.01-.22.02-.1v-.01l.02-.09v-.02a2.14 2.14 0 01.07-.23l.01-.04.03-.08.01-.02.04-.09c.3-.62.88-1.08 1.57-1.22l.1-.02h.01l.1-.02h.13l.11-.01c.21 0 .38-.17.38-.38v-2.77a.38.38 0 00-.76 0v2.41a2.98 2.98 0 00-1.86.98V4.15c0-1.1.8-2.03 1.86-2.2v11.5a.38.38 0 00.76 0V6.06h11.09l-2.11 2.1a.38.38 0 00.54.55l2.76-2.76 2.5-2.5L45.5 5.2l-.2.2-7.7 7.7-1.76-1.75 1.52-1.52a.38.38 0 00-.54-.54l-1.79 1.79a.36.36 0 00-.02.03l-.01.01-.02.02v.02a.35.35 0 00-.03.05v.01l-1.26 3.54-.01.06H32.4a.38.38 0 000 .77h10.57a.38.38 0 100-.77H35.4l2.32-.82.04-.01.03-.02h.01l.03-.03a.4.4 0 00.04-.03l7.85-7.85h3.31v8.15l-5.46 5.46a.38.38 0 00.54.54l6.72-6.71v3.36zM36.9 13.5l-1.1.39-.72-.73.38-1.1 1.44 1.44zM7.3 33.43c.1.03.2.01.28-.04a.4.4 0 00.19-.23.4.4 0 00-.27-.5l-1.26-.38.36-1.32a.4.4 0 00-.26-.5.38.38 0 00-.48.28l-.47 1.7c-.02.1-.01.22.04.3.05.1.13.17.23.2l1.63.49zM9.91 30.16l-.36 1.32a.4.4 0 00.26.5c.1.03.2.01.3-.04a.4.4 0 00.17-.24l.47-1.7a.4.4 0 00-.26-.5l-1.63-.48a.38.38 0 00-.48.27.4.4 0 00.26.5l1.27.37zM8.33 32.93c.05 0 .1-.02.14-.04a.4.4 0 00.19-.4l-.34-2.67a.39.39 0 00-.43-.35.4.4 0 00-.33.45l.34 2.67c.03.22.22.37.43.34zM7.81 35.94l2.26-1.3a.4.4 0 00.15-.54.38.38 0 00-.52-.16l-2.26 1.3a.4.4 0 00-.15.55c.1.2.34.26.52.15zM14.91 30.94l-3.97 2.29a.4.4 0 00-.15.54c.1.2.33.27.52.16l3.97-2.3a.4.4 0 00.15-.54.38.38 0 00-.52-.15zM8.6 37.42l.96-.56a.4.4 0 00.15-.54.38.38 0 00-.52-.16l-.97.56a.4.4 0 00-.15.54c.1.2.34.27.53.16zM14.47 33.12a.4.4 0 00-.15.54c.1.2.33.27.52.16l.59-.34a.4.4 0 00.15-.54.38.38 0 00-.53-.16l-.58.34zM13.77 33.98a.38.38 0 00-.52-.16l-2.88 1.66a.4.4 0 00-.15.55c.1.2.33.26.52.15l2.88-1.66a.4.4 0 00.15-.54zM15.97 32.71c.1.2.34.26.52.16l1.1-.64a.4.4 0 00.15-.54.38.38 0 00-.52-.16l-1.1.64a.4.4 0 00-.15.54zM11.83 29.42l1.16-.67a.4.4 0 00.15-.54.38.38 0 00-.52-.16l-1.16.67a.4.4 0 00-.15.55c.1.19.34.26.52.15zM14.3 28l7.06-4.07a.4.4 0 00.15-.55.38.38 0 00-.52-.15l-7.07 4.08a.4.4 0 00-.15.54c.1.2.34.26.52.16zM20.74 25.39l-2.87 1.65a.4.4 0 00-.15.54c.1.2.34.27.52.16l2.87-1.65a.4.4 0 00.15-.55.38.38 0 00-.52-.15zM16.8 27.66l-.99.57a.4.4 0 00-.15.54c.1.2.34.26.52.16l.99-.57a.4.4 0 00.15-.55.38.38 0 00-.52-.15zM12.65 30.96l2.41-1.39a.4.4 0 00.15-.54.38.38 0 00-.52-.16l-2.41 1.4a.4.4 0 00-.15.54c.1.19.34.26.52.15zM14.03 35.28l-2.26 1.3a.4.4 0 00-.15.55c.1.2.33.26.52.16l2.26-1.3a.4.4 0 00.15-.55.38.38 0 00-.52-.16zM10.74 37.18l-1.74 1a.4.4 0 00-.15.55c.1.19.34.26.52.15l1.74-1a.4.4 0 00.15-.54.38.38 0 00-.52-.16zM18.13 32.92l-2.96 1.7a.4.4 0 00-.14.55c.1.19.33.26.52.15l2.95-1.7a.4.4 0 00.15-.54.38.38 0 00-.52-.16zM21.17 28.82l-1.61.93a.4.4 0 00-.15.54c.1.2.33.27.52.16l1.61-.93a.4.4 0 00.15-.54.38.38 0 00-.52-.16zM24.35 27.9l2.28-1.31a.4.4 0 00.15-.55.38.38 0 00-.52-.15l-2.29 1.31a.4.4 0 00-.15.55c.1.19.34.26.53.15zM22.83 27.86l-.52.3a.4.4 0 00-.15.55c.1.19.34.26.52.15l.53-.3a.4.4 0 00.15-.54.38.38 0 00-.53-.16zM21.95 34.26l1.62-.93a.4.4 0 00.15-.54.38.38 0 00-.52-.16l-1.62.93a.4.4 0 00-.15.55c.1.19.34.26.52.15zM26.37 31.71l2.28-1.31a.4.4 0 00.15-.54.38.38 0 00-.52-.16L26 31.02a.4.4 0 00-.15.54c.1.2.34.26.52.15zM24.7 32.67l.53-.3a.4.4 0 00.15-.54.38.38 0 00-.52-.16l-.52.3a.4.4 0 00-.15.55c.1.19.33.26.52.15zM25.22 36.44l-1.61.93a.4.4 0 00-.15.55c.1.2.33.26.52.15l1.61-.93a.4.4 0 00.15-.54.38.38 0 00-.52-.16zM30.3 33.51l-2.28 1.32a.4.4 0 00-.15.54c.1.2.34.26.53.16l2.28-1.32a.4.4 0 00.15-.54.38.38 0 00-.52-.16zM26.88 35.48l-.52.3a.4.4 0 00-.15.55c.1.2.34.26.52.15l.53-.3a.4.4 0 00.15-.54.38.38 0 00-.53-.16z"/>
  <path fill="#5A84C5" d="M21.49 13.87L1.5 25.4a1.8 1.8 0 00-.66 2.4l9 16.92a1.66 1.66 0 002.29.69l1.26-.73a.4.4 0 00.15-.55.38.38 0 00-.52-.15l-1.26.73a.9.9 0 01-1.25-.38L9.8 43l12.22-7.05.32.6-.26.16a.8.8 0 00-.3 1.07l.47.87-7.2 4.15a.4.4 0 00-.15.54c.1.2.34.27.52.16l3.23-1.86.67 1.25-1.01.59a1.5 1.5 0 00-.55 1.98l.4.76c.17.32.56.44.87.26l10.25-5.91c.31-.18.42-.59.25-.91l-.4-.76a1.37 1.37 0 00-1.9-.57l-1.02.59-.23-.44 6.2-3.58a.8.8 0 00.3-1.07l-.09-.17c.57-.53.74-1.42.35-2.15l-8.97-16.94a1.66 1.66 0 00-2.3-.69zm-.15 21.39l-.9-1.68 8.46-4.87.89 1.67-8.45 4.88zM21 32.35l-.4-.74 6.6-3.8.4.73-6.6 3.8zm8.23-.73l.4.73-6.6 3.8-.4-.73 6.6-3.8zm-9.9 9.62l3.3-1.9.07.13c.2.38.66.51 1.02.3l1.6-.92.23.45L20 42.5l-.67-1.26zm8.28-2.22c.3-.17.7-.06.86.26l.34.64-10.03 5.78-.34-.63a.68.68 0 01.25-.9l8.92-5.15zm4.2-4.83l-8.45 4.88-.89-1.68 8.45-4.87.9 1.67zm.27-2.3a1 1 0 01-.07 1.03l-.42-.8a.74.74 0 00-1.03-.3l-.26.15-.32-.6 1.4-.81.7 1.32zM31 29.85l-.48.28c-.01-.05-.96-1.83-.96-1.83a.74.74 0 00-1.02-.3l-.27.14-.39-.73.27-.15a.8.8 0 00.3-1.07l-.91-1.7a.74.74 0 00-1.03-.31l-1.9 1.1a.4.4 0 00-.14.54c.1.19.33.26.52.15l1.88-1.08.9 1.67-8.46 4.87-.89-1.67 4.48-2.58a.4.4 0 00.15-.55.38.38 0 00-.52-.15l-4.5 2.59a.8.8 0 00-.29 1.06l.9 1.7c.2.38.67.52 1.03.31l.27-.15.39.73-.27.16a.8.8 0 00-.3 1.07l.99 1.81-11.32 6.52-6.2-11.67L24.8 18.18 31 29.86zm-6.57-12.38L2.88 29.9l-1.34-2.52a.98.98 0 01.36-1.3l19.94-11.5a.9.9 0 011.25.38l1.34 2.52z"/>
  <path fill="#5A84C5" d="M3.21 26.16a1.2 1.2 0 00-.44 1.6c.3.56 1 .77 1.53.45a1.2 1.2 0 00.44-1.6 1.1 1.1 0 00-1.53-.45zm.72 1.35c-.17.1-.39.04-.48-.14a.38.38 0 01.14-.51c.17-.1.39-.03.48.15.1.18.04.4-.14.5zM5.72 24.71a1.2 1.2 0 00-.44 1.6c.3.56.99.77 1.53.46a1.2 1.2 0 00.44-1.6 1.1 1.1 0 00-1.53-.46zm.72 1.36c-.17.1-.39.03-.49-.15a.38.38 0 01.14-.5c.18-.1.4-.04.5.14.09.18.02.4-.15.5zM8.23 23.27a1.2 1.2 0 00-.44 1.6c.3.56.99.76 1.53.45a1.2 1.2 0 00.44-1.6 1.1 1.1 0 00-1.53-.45zm.72 1.35c-.17.1-.4.04-.49-.15a.38.38 0 01.14-.5c.18-.1.4-.04.5.14.09.18.02.41-.15.51z"/>
</svg>