<svg width="24" height="23" viewBox="0 0 24 23" fill="none" xmlns="http://www.w3.org/2000/svg">
<path d="M20.3808 15.3977L20.1429 15.0254C19.6781 14.2978 19.1155 13.6306 18.4709 13.0423L17.6757 12.3166C17.6001 12.2476 17.5888 12.1381 17.6487 12.0562L18.7345 10.5734C18.8911 10.3596 19.0356 10.1344 19.164 9.90415L20.0919 8.24038C20.2536 7.95045 20.245 7.60891 20.0687 7.3268C19.8926 7.04474 19.5825 6.87606 19.2395 6.8757L17.2311 6.8735C17.2307 6.8735 17.2303 6.8735 17.2299 6.8735C16.8091 6.8735 16.4281 7.11199 16.259 7.48124L16.0463 7.94574C15.5036 9.13082 14.7628 10.2114 13.8437 11.1588V7.76776C13.8437 7.27442 13.4249 6.87305 12.9102 6.87305H10.0658C9.59869 6.87305 9.21877 7.23718 9.21877 7.68479C9.21877 7.85571 9.27375 8.01945 9.37772 8.15817L9.57675 8.42388C9.77189 8.6843 9.87502 8.99143 9.87502 9.31208V11.7899C9.52425 11.3995 9.09717 10.8693 8.73563 10.2598C8.18199 9.32632 7.78514 8.23782 7.59788 7.67203C7.43967 7.19415 6.98199 6.87305 6.45891 6.87305H4.42482C4.13775 6.87305 3.87375 6.99883 3.70032 7.21814C3.52702 7.43749 3.47222 7.7152 3.55008 7.9801L3.92953 9.27071C4.16208 10.0618 4.48177 10.832 4.87969 11.5598C4.99978 11.7795 5.283 11.8644 5.51241 11.7492C5.74177 11.6341 5.83022 11.3626 5.71008 11.1428C5.34235 10.4701 5.04689 9.75829 4.83193 9.0271L4.46278 7.77148H6.45896C6.5716 7.77148 6.67018 7.84066 6.70425 7.94367C6.90267 8.54306 7.32455 9.69877 7.92066 10.7037C8.40975 11.5283 9.00314 12.2152 9.41489 12.6463C9.64046 12.8825 9.98752 12.9602 10.299 12.8442C10.611 12.728 10.8125 12.4458 10.8125 12.1252V9.31208C10.8125 8.80226 10.6485 8.31392 10.3383 7.89987L10.2421 7.77148H12.9062V11.374C12.9062 11.6376 13.0443 11.8799 13.2757 12.0224C13.5069 12.1649 13.7943 12.1847 14.0445 12.0752L14.2378 11.9906C14.3269 11.9517 14.406 11.8974 14.473 11.8292C15.4903 10.7939 16.3085 9.60879 16.9048 8.30673L17.1175 7.84224C17.1371 7.79947 17.1812 7.77189 17.2299 7.77189H17.23L19.2384 7.77409C19.2452 7.77409 19.2556 7.77413 19.2644 7.78824C19.2733 7.80239 19.2683 7.81111 19.2652 7.8169L18.3373 9.48063C18.2266 9.67905 18.1021 9.87306 17.9672 10.0573L16.8814 11.5401C16.5527 11.989 16.6149 12.5892 17.0292 12.9673L17.8244 13.693C18.4101 14.2274 18.9211 14.8336 19.3434 15.4945L19.5813 15.8669C19.587 15.8758 19.6044 15.9031 19.5827 15.9401C19.5611 15.9772 19.5277 15.9772 19.5168 15.9772H17.7829C17.5601 15.9772 17.3433 15.8894 17.188 15.7364L15.4543 14.028C15.0457 13.6254 14.5272 13.3489 13.9548 13.2285C13.6983 13.1745 13.4334 13.234 13.2286 13.3919C13.0238 13.5498 12.9063 13.7848 12.9063 14.0366V15.7152C12.9063 15.8597 12.7837 15.9772 12.6329 15.9772C11.2893 15.9772 9.96169 15.5464 8.89449 14.7642C8.46455 14.4491 8.05449 14.1015 7.67569 13.7313C7.49447 13.5542 7.19771 13.5513 7.01278 13.725C6.82791 13.8987 6.825 14.1831 7.00622 14.3603C7.41605 14.7609 7.85972 15.1369 8.32491 15.4778C9.55467 16.3792 11.0846 16.8757 12.6328 16.8757C13.3005 16.8757 13.8437 16.3551 13.8437 15.7152V14.127C14.2007 14.2184 14.5235 14.3995 14.7822 14.6544L16.5159 16.3628C16.8466 16.6887 17.3085 16.8757 17.7829 16.8757H19.5168C19.883 16.8757 20.2217 16.6855 20.4006 16.3793C20.5796 16.0731 20.572 15.697 20.3808 15.3977Z" fill="white"/>
<path d="M6.56508 12.4684L6.55988 12.4614C6.40899 12.2598 6.11621 12.2135 5.90578 12.3581C5.69541 12.5027 5.64713 12.7833 5.79797 12.985C5.79816 12.9853 5.80097 12.989 5.80116 12.9893L6.18413 12.7302L5.80318 12.9919C5.89472 13.1143 6.03858 13.1794 6.18455 13.1794C6.27905 13.1794 6.37453 13.1521 6.45727 13.0952C6.66764 12.9506 6.71593 12.67 6.56508 12.4684Z" fill="white"/>
<path d="M9.60303 19.9453H5.78271C5.52387 19.9453 5.31396 20.1464 5.31396 20.3945C5.31396 20.6426 5.52387 20.8438 5.78271 20.8438H9.60303C9.86192 20.8438 10.0718 20.6426 10.0718 20.3945C10.0718 20.1464 9.86187 19.9453 9.60303 19.9453Z" fill="white"/>
<path d="M11.7358 19.9453H11.7302C11.4714 19.9453 11.2615 20.1464 11.2615 20.3945C11.2615 20.6426 11.4714 20.8438 11.7302 20.8438H11.7358C11.9947 20.8438 12.2046 20.6426 12.2046 20.3945C12.2046 20.1464 11.9946 19.9453 11.7358 19.9453Z" fill="white"/>
<path d="M20.9062 0H3.09375C1.38783 0 0 1.33 0 2.96484V20.0352C0 21.67 1.38783 23 3.09375 23H20.9062C22.6122 23 24 21.67 24 20.0352V2.96484C24 1.33 22.6122 0 20.9062 0ZM23.0625 20.0352C23.0625 21.1746 22.0952 22.1016 20.9062 22.1016H3.09375C1.90481 22.1016 0.9375 21.1746 0.9375 20.0352V2.96484C0.9375 1.82545 1.90481 0.898438 3.09375 0.898438H20.9062C22.0952 0.898438 23.0625 1.82545 23.0625 2.96484V20.0352Z" fill="white"/>
</svg>
