<svg width="259" height="40" viewBox="0 0 259 40" fill="none" xmlns="http://www.w3.org/2000/svg">
<path d="M38.4519 2.19629H53.3498C57.218 2.19629 60.6332 2.98068 63.5954 4.54946C66.5575 6.08338 68.8575 8.24481 70.4954 11.0338C72.1333 13.7878 72.9523 16.9428 72.9523 20.4987C72.9523 24.0546 72.1333 27.2271 70.4954 30.016C68.8575 32.7701 66.5575 34.9315 63.5954 36.5003C60.6332 38.0342 57.218 38.8012 53.3498 38.8012H38.4519V2.19629ZM53.1407 35.4544C56.3468 35.4544 59.1521 34.8269 61.5567 33.5719C63.9613 32.282 65.8257 30.5215 67.1499 28.2903C68.4742 26.0243 69.1363 23.4271 69.1363 20.4987C69.1363 17.5703 68.4742 14.9906 67.1499 12.7594C65.8257 10.4934 63.9613 8.73288 61.5567 7.47785C59.1521 6.18797 56.3468 5.54303 53.1407 5.54303H42.3201V35.4544H53.1407ZM92.6163 35.7682C94.3239 35.7682 95.8921 35.4719 97.3209 34.8792C98.7845 34.2517 100.022 33.3453 101.032 32.16L103.123 34.5655C101.904 36.0297 100.388 37.1452 98.5754 37.9122C96.7633 38.6792 94.7595 39.0626 92.564 39.0626C89.7413 39.0626 87.2321 38.47 85.0367 37.2847C82.8412 36.0645 81.1336 34.3912 79.9139 32.2646C78.6942 30.138 78.0843 27.7326 78.0843 25.0482C78.0843 22.3638 78.6593 19.9584 79.8093 17.8318C80.9942 15.7052 82.6147 14.0493 84.6708 12.864C86.7268 11.6787 89.0617 11.086 91.6754 11.086C94.1148 11.086 96.3103 11.6438 98.2618 12.7594C100.248 13.875 101.816 15.4263 102.966 17.4135C104.151 19.4006 104.779 21.6666 104.848 24.2115L82.2662 28.6041C82.9632 30.8353 84.2177 32.5958 86.0299 33.8857C87.8769 35.1407 90.0723 35.7682 92.6163 35.7682ZM91.6754 14.2759C89.7587 14.2759 88.0337 14.7291 86.5003 15.6355C85.0018 16.5071 83.817 17.7447 82.9457 19.3483C82.1094 20.9171 81.6912 22.7299 81.6912 24.7867C81.6912 25.3097 81.7086 25.6931 81.7435 25.9372L101.137 22.1721C100.719 19.8712 99.6558 17.9887 97.9482 16.5245C96.2406 15.0254 94.1496 14.2759 91.6754 14.2759Z" fill="url(#paint0_linear)"/>
<path d="M152.339 1.88254C156.521 1.88254 159.779 3.08527 162.114 5.49073C164.449 7.8962 165.616 11.3824 165.616 15.9493V38.8012H161.801V16.0539C161.801 12.498 160.894 9.83102 159.082 8.05307C157.305 6.24026 154.866 5.33385 151.764 5.33385C148.488 5.33385 145.927 6.29255 144.08 8.20995C142.233 10.0925 141.309 12.986 141.309 16.8905V38.8012H137.493V16.0539C137.493 12.498 136.622 9.83102 134.88 8.05307C133.137 6.24026 130.715 5.33385 127.614 5.33385C124.303 5.33385 121.707 6.29255 119.825 8.20995C117.978 10.0925 117.055 12.986 117.055 16.8905V38.8012H113.186V2.19629H116.898V8.31454C117.908 6.22283 119.407 4.63662 121.393 3.5559C123.38 2.44033 125.732 1.88254 128.45 1.88254C131.308 1.88254 133.747 2.49262 135.768 3.71278C137.825 4.89808 139.306 6.57145 140.212 8.73288C141.257 6.50172 142.825 4.81093 144.916 3.66049C147.042 2.47519 149.516 1.88254 152.339 1.88254ZM201.559 11.2952V38.8012H198.004V33.3627C196.889 35.2104 195.408 36.6223 193.561 37.5984C191.749 38.5746 189.693 39.0626 187.393 39.0626C184.814 39.0626 182.479 38.47 180.388 37.2847C178.297 36.0994 176.659 34.4435 175.474 32.3169C174.29 30.1903 173.697 27.7674 173.697 25.0482C173.697 22.329 174.29 19.9061 175.474 17.7795C176.659 15.6529 178.297 14.0144 180.388 12.864C182.479 11.6787 184.814 11.086 187.393 11.086C189.623 11.086 191.627 11.5567 193.404 12.498C195.216 13.4044 196.697 14.7465 197.847 16.5245V11.2952H201.559ZM187.706 35.7682C189.623 35.7682 191.348 35.3324 192.881 34.4609C194.45 33.5545 195.669 32.282 196.54 30.6435C197.447 29.005 197.9 27.1399 197.9 25.0482C197.9 22.9565 197.447 21.0914 196.54 19.4529C195.669 17.8144 194.45 16.5594 192.881 15.6878C191.348 14.7814 189.623 14.3282 187.706 14.3282C185.755 14.3282 183.995 14.7814 182.427 15.6878C180.893 16.5594 179.674 17.8144 178.768 19.4529C177.896 21.0914 177.461 22.9565 177.461 25.0482C177.461 27.1399 177.896 29.005 178.768 30.6435C179.674 32.282 180.893 33.5545 182.427 34.4609C183.995 35.3324 185.755 35.7682 187.706 35.7682ZM215.45 16.6814C216.321 14.8337 217.61 13.4392 219.318 12.498C221.06 11.5567 223.204 11.086 225.748 11.086V14.6942L224.859 14.642C221.967 14.642 219.701 15.5309 218.063 17.3089C216.426 19.0868 215.607 21.5795 215.607 24.7867V38.8012H211.895V11.2952H215.45V16.6814ZM242.661 24.9959L236.179 30.9573V38.8012H232.467V0H236.179V26.3032L252.593 11.2952H257.193L245.431 22.5381L258.291 38.8012H253.743L242.661 24.9959Z" fill="#494051"/>
<path d="M152.339 1.88254C156.521 1.88254 159.779 3.08527 162.114 5.49073C164.449 7.8962 165.616 11.3824 165.616 15.9493V38.8012H161.801V16.0539C161.801 12.498 160.894 9.83102 159.082 8.05307C157.305 6.24026 154.866 5.33385 151.764 5.33385C148.488 5.33385 145.927 6.29255 144.08 8.20995C142.233 10.0925 141.309 12.986 141.309 16.8905V38.8012H137.493V16.0539C137.493 12.498 136.622 9.83102 134.88 8.05307C133.137 6.24026 130.715 5.33385 127.614 5.33385C124.303 5.33385 121.707 6.29255 119.825 8.20995C117.978 10.0925 117.055 12.986 117.055 16.8905V38.8012H113.186V2.19629H116.898V8.31454C117.908 6.22283 119.407 4.63662 121.393 3.5559C123.38 2.44033 125.732 1.88254 128.45 1.88254C131.308 1.88254 133.747 2.49262 135.768 3.71278C137.825 4.89808 139.306 6.57145 140.212 8.73288C141.257 6.50172 142.825 4.81093 144.916 3.66049C147.042 2.47519 149.516 1.88254 152.339 1.88254ZM201.559 11.2952V38.8012H198.004V33.3627C196.889 35.2104 195.408 36.6223 193.561 37.5984C191.749 38.5746 189.693 39.0626 187.393 39.0626C184.814 39.0626 182.479 38.47 180.388 37.2847C178.297 36.0994 176.659 34.4435 175.474 32.3169C174.29 30.1903 173.697 27.7674 173.697 25.0482C173.697 22.329 174.29 19.9061 175.474 17.7795C176.659 15.6529 178.297 14.0144 180.388 12.864C182.479 11.6787 184.814 11.086 187.393 11.086C189.623 11.086 191.627 11.5567 193.404 12.498C195.216 13.4044 196.697 14.7465 197.847 16.5245V11.2952H201.559ZM187.706 35.7682C189.623 35.7682 191.348 35.3324 192.881 34.4609C194.45 33.5545 195.669 32.282 196.54 30.6435C197.447 29.005 197.9 27.1399 197.9 25.0482C197.9 22.9565 197.447 21.0914 196.54 19.4529C195.669 17.8144 194.45 16.5594 192.881 15.6878C191.348 14.7814 189.623 14.3282 187.706 14.3282C185.755 14.3282 183.995 14.7814 182.427 15.6878C180.893 16.5594 179.674 17.8144 178.768 19.4529C177.896 21.0914 177.461 22.9565 177.461 25.0482C177.461 27.1399 177.896 29.005 178.768 30.6435C179.674 32.282 180.893 33.5545 182.427 34.4609C183.995 35.3324 185.755 35.7682 187.706 35.7682ZM215.45 16.6814C216.321 14.8337 217.61 13.4392 219.318 12.498C221.06 11.5567 223.204 11.086 225.748 11.086V14.6942L224.859 14.642C221.967 14.642 219.701 15.5309 218.063 17.3089C216.426 19.0868 215.607 21.5795 215.607 24.7867V38.8012H211.895V11.2952H215.45V16.6814ZM242.661 24.9959L236.179 30.9573V38.8012H232.467V0H236.179V26.3032L252.593 11.2952H257.193L245.431 22.5381L258.291 38.8012H253.743L242.661 24.9959Z" fill="url(#paint1_linear)"/>
<path d="M15.0683 11.5654L2 24.6386L15.0683 37.7117" stroke="url(#paint2_linear)" stroke-width="2"/>
<path d="M12.3458 28.9963L25.4141 15.9231L12.3458 2.84995" stroke="url(#paint3_linear)" stroke-width="2"/>
<defs>
<linearGradient id="paint0_linear" x1="148.202" y1="-11.8574" x2="148.202" y2="55.1426" gradientUnits="userSpaceOnUse">
<stop stop-color="#2458A7"/>
<stop offset="1" stop-color="#494051"/>
</linearGradient>
<linearGradient id="paint1_linear" x1="148.202" y1="-11.8574" x2="148.202" y2="55.1426" gradientUnits="userSpaceOnUse">
<stop stop-color="#922D51"/>
<stop offset="1" stop-color="#D93030"/>
</linearGradient>
<linearGradient id="paint2_linear" x1="8.53416" y1="11.5654" x2="8.53416" y2="37.7117" gradientUnits="userSpaceOnUse">
<stop stop-color="#2458A7"/>
<stop offset="1" stop-color="#494051"/>
</linearGradient>
<linearGradient id="paint3_linear" x1="18.8799" y1="28.9963" x2="18.8799" y2="2.84995" gradientUnits="userSpaceOnUse">
<stop stop-color="#2458A7"/>
<stop offset="1" stop-color="#494051"/>
</linearGradient>
</defs>
</svg>
